<?xml version="1.0" encoding="UTF-8"?>
<svg width="500px" height="400px" viewBox="0 0 500 400" version="1.1" xmlns="http://www.w3.org/2000/svg" xmlns:xlink="http://www.w3.org/1999/xlink">
    <!-- Generator: Sketch 43.2 (39069) - http://www.bohemiancoding.com/sketch -->
    <title>mountains</title>
    <desc>Created with Sketch.</desc>
    <defs></defs>
    <g id="Page-1" stroke="none" stroke-width="1" fill="none" fill-rule="evenodd">
        <g id="mountains">
            <path d="M72,442.529456 C72,442.529456 176.94963,322.145604 224,267.029456 C241.5,246.529456 323.5,221.529456 356.5,187.029456 C389.5,152.529456 460.849871,71.2693488 460.849871,71.2693488 C461.208927,70.8607175 461.72536,70.9272722 461.992744,71.3995445 C461.992744,71.3995445 514.5,164.029456 525,187.029456 C535.5,210.029456 577.5,333.029456 577.5,333.029456 L577.5,442.529456 L72,442.529456 Z" id="Path-Copy" fill="#D9BAFF"></path>
            <polyline id="Path-5" stroke="#FFFEFE" stroke-width="4" stroke-linecap="round" points="403.5 143 426 162.5 452.5 149 473 163.5 492.5 144"></polyline>
            <path d="M407.661732,132.329011 L460.278393,69.0546555 C460.984822,68.2051362 461.963873,68.3050404 462.469444,69.286102 L496.661732,135.636334 L475.276418,151.454025 L452.161732,135.636334 L428.240115,147.204022 L407.661732,132.329011 Z" id="Path" fill="#E8E0F2"></path>
            <path d="M-4,406 C-4,406 100.94963,285.616148 148,230.5 C165.5,210 247.5,185 280.5,150.5 C313.5,116 384.849871,34.7398926 384.849871,34.7398926 C385.208927,34.3312612 385.72536,34.3978159 385.992744,34.8700882 C385.992744,34.8700882 438.5,127.5 449,150.5 C459.5,173.5 501.5,296.5 501.5,296.5 L501.5,406 L-4,406 Z" id="Path" fill="#C9B6DF"></path>
            <path d="M0,406 C0,406 104.94963,334.056923 152,301.11874 C169.5,288.867653 251.5,273.927302 284.5,253.309619 C317.5,232.691935 369,183.687586 389.5,183.687586 C410,183.687586 442.5,239.564496 453,253.309619 C463.5,267.054741 505.5,340.561265 505.5,340.561265 L505.5,406 L0,406 Z" id="Path" fill="#AE98CA"></path>
            <path d="M36,506.312414 C36,506.312414 140.94963,434.369337 188,401.431154 C205.5,389.180067 285.5,363.744066 320.5,353.622033 C355.5,343.5 411.5,284 425.5,284 C439.5,284 478.5,339.876911 489,353.622033 C499.5,367.367155 541.5,440.873679 541.5,440.873679 L541.5,506.312414 L36,506.312414 Z" id="Path-Copy-3" fill="#7A6494"></path>
            <path d="M333.661732,92.3290114 L387.28798,27.0615682 C387.989114,26.2082312 388.963873,26.3050404 389.469444,27.286102 L423.661732,93.6363337 L402.276418,109.454025 L379.161732,93.6363337 L355.240115,115.204022 L333.661732,92.3290114 Z" id="Path" fill="#E8E0F2"></path>
            <path d="M232.5,185 C232.5,185 261.581493,170.278439 280.5,150.5 C288.753645,141.871189 299.406275,130.317289 310.741559,117.841268" id="Path-Copy-2" stroke="#87769D" stroke-width="5" stroke-linecap="round"></path>
            <path d="M69,322 C69,322 100.94963,285.616148 148,230.5 C152.913712,224.743937 162.912567,218.633096 175.484036,212.056794" id="Path-Copy-4" stroke="#87769D" stroke-width="5" stroke-linecap="round"></path>
            <path d="M343,85 L384.857859,34.7705692 C385.212504,34.3449956 385.720142,34.3909721 385.993983,34.8773146 L448,145" id="Path-2" stroke="#87769D" stroke-width="6" stroke-linecap="round"></path>
            <polyline id="Path-5" stroke="#FFFEFE" stroke-width="4" stroke-linecap="round" points="329.5 102 356 127.5 378.5 108 399 122.5 418.5 103"></polyline>
            <path d="M447.5,98.5 L462.373184,79.7885746 C462.719365,79.3530569 463.219969,79.3858878 463.492642,79.8642333 L493.574862,132.636955" id="Path-2-Copy" stroke="#87769D" stroke-width="6" stroke-linecap="round"></path>
            <path d="M47,348 L25,373.5" id="Path-3" stroke="#87769D" stroke-width="5" stroke-linecap="round"></path>
            <path d="M474,219.5 L511,324" id="Path-4" stroke="#87769D" stroke-width="5" stroke-linecap="round"></path>
        </g>
    </g>
</svg>