<?xml version="1.0" encoding="UTF-8"?>
<svg width="768px" height="578px" viewBox="0 0 768 578" version="1.1" xmlns="http://www.w3.org/2000/svg" xmlns:xlink="http://www.w3.org/1999/xlink" style="background: #FFFFFF;">
    <!-- Generator: Sketch 43.2 (39069) - http://www.bohemiancoding.com/sketch -->
    <title>200</title>
    <desc>Created with Sketch.</desc>
    <defs></defs>
    <g id="Page-1" stroke="none" stroke-width="1" fill="none" fill-rule="evenodd">
        <g id="200">
            <path d="M287.93291,390.019165 C315.030658,405.64541 342.130724,410.114279 348.462602,400.000664 C354.794479,389.887049 337.960414,369.02077 310.862666,353.394525 C283.764917,337.76828 256.664851,333.299411 250.332974,343.413026 C244.001097,353.526641 260.835162,374.39292 287.93291,390.019165 Z" id="Oval-2-Copy-15" stroke="#7E6785" stroke-width="7" fill="#D08E49" transform="translate(299.397788, 371.706845) rotate(-21.000000) translate(-299.397788, -371.706845) "></path>
            <path d="M429.570867,565 L280.5,565 C265.669557,538.119824 271.77218,513.5731 267.09568,475.486071 C255.624032,382.056992 286.826878,301.344684 336.789188,295.210083 C386.751497,289.075483 436.55356,359.84164 448.025208,453.270718 C450.294123,471.749543 451.33459,491.905614 450.898807,511.125491 L513.243271,564.35392 C513.659709,564.709466 513.552507,565 513.000497,565 L429.570867,565 Z" id="Combined-Shape-Copy-7" stroke="#7E6785" stroke-width="7" fill="#A2B4B7"></path>
            <path d="M349,428 C381.5848,428 403,402.480231 403,371 C403,339.519769 375.5848,313 343,313 C310.4152,313 290,339.519769 290,371 C290,402.480231 316.4152,428 349,428 Z" id="Oval" stroke="#FFF5F5" fill="#FFFDFD"></path>
            <path d="M349,428 C381.5848,428 403,402.480231 403,371 C403,339.519769 361.5,377 361.5,377 C361.5,377 325.748187,428 349,428 Z" id="Oval-Copy" fill="#E6E1E1"></path>
            <path d="M301.52461,381.650042 C305.440353,381.650042 312.186989,373.733565 312.186989,366.991347 C312.186989,360.249129 306.491986,354.783482 299.466844,354.783482 C292.441702,354.783482 290.474521,356.401469 286.7467,360.887414 C283.018878,365.37336 280.42323,371.696979 285.598581,376.663903 C290.773932,381.630827 297.608868,381.650042 301.52461,381.650042 Z" id="Oval-3-Copy-7" stroke="#7E6785" fill="#7E6785" transform="translate(297.440140, 368.216762) rotate(-26.000000) translate(-297.440140, -368.216762) "></path>
            <path d="M299.437696,374.786458 C301.352734,374.786458 304.652252,370.914816 304.652252,367.617459 C304.652252,364.320102 301.867047,361.647065 298.431322,361.647065 C294.995598,361.647065 294.033526,362.43836 292.210393,364.632262 C290.38726,366.826164 289.117829,369.918801 291.648892,372.347931 C294.179956,374.777061 297.522658,374.786458 299.437696,374.786458 Z" id="Oval-3-Copy-8" stroke="#F6F6F1" fill="#7E6785" transform="translate(297.440140, 368.216762) rotate(-26.000000) translate(-297.440140, -368.216762) "></path>
            <path d="M322.033045,246 L322.033045,434.269781 C322.033045,434.269781 321.603633,441.299872 323.840713,447.562463" id="Path-3-Copy" stroke="#7E6785" stroke-width="7" stroke-linecap="round"></path>
            <path d="M254,120.375 L254,149.875" id="Line-Copy-27" stroke="#B8A2BE" stroke-width="7" stroke-linecap="round"></path>
            <path d="M192,173.375 L192,202.875" id="Line-Copy-28" stroke="#B8A2BE" stroke-width="7" stroke-linecap="round"></path>
            <path d="M367,119.375 L367,148.875" id="Line-Copy-30" stroke="#B8A2BE" stroke-width="7" stroke-linecap="round"></path>
            <path d="M438,158.375 L438,187.875" id="Line-Copy-31" stroke="#B8A2BE" stroke-width="7" stroke-linecap="round"></path>
            <path d="M472,216.375 L472,245.875" id="Line-Copy-32" stroke="#B8A2BE" stroke-width="7" stroke-linecap="round"></path>
            <path d="M369,16.375 L369,61.375" id="Line-Copy-24" stroke="#B8A2BE" stroke-width="7" stroke-linecap="round"></path>
            <path d="M189,66.375 L189,111.375" id="Line-Copy-24" stroke="#B8A2BE" stroke-width="7" stroke-linecap="round"></path>
            <path d="M164,222 L164,254.375" id="Line-Copy-24" stroke="#B8A2BE" stroke-width="7" stroke-linecap="round"></path>
            <path d="M319,66.375 L319,111.375" id="Line-Copy-24" stroke="#B8A2BE" stroke-width="7" stroke-linecap="round"></path>
            <path d="M242.1875,125.3125 C246.467707,125.3125 249.8125,121.592707 249.8125,117.3125 C249.8125,113.032293 246.467707,109.3125 242.1875,109.3125" id="Oval" stroke="#B8A2BE" stroke-width="7" transform="translate(246.000000, 117.312500) rotate(-90.000000) translate(-246.000000, -117.312500) "></path>
            <path d="M180.625,177.75 C184.905207,177.75 188.375,174.780207 188.375,170.5 C188.375,166.219793 184.905207,162.75 180.625,162.75" id="Oval-Copy" stroke="#B8A2BE" stroke-width="7" transform="translate(184.500000, 170.250000) rotate(-90.000000) translate(-184.500000, -170.250000) "></path>
            <path d="M370.875,123 C375.155207,123 378.625,119.530207 378.625,115.25 C378.625,110.969793 375.155207,107.5 370.875,107.5" id="Oval-Copy-3" stroke="#B8A2BE" stroke-width="7" transform="translate(374.750000, 115.250000) rotate(-90.000000) translate(-374.750000, -115.250000) "></path>
            <path d="M441.875,182 C446.155207,182 449.625,178.530207 449.625,174.25 C449.625,169.969793 446.155207,166.5 441.875,166.5" id="Oval-Copy-8" stroke="#B8A2BE" stroke-width="7" transform="translate(445.750000, 174.250000) rotate(-90.000000) translate(-445.750000, -174.250000) "></path>
            <path d="M426.1875,163.3125 C430.467707,163.3125 433.8125,159.592707 433.8125,155.3125 C433.8125,151.032293 430.467707,147.3125 426.1875,147.3125" id="Oval-Copy-4" stroke="#B8A2BE" stroke-width="7" transform="translate(430.000000, 155.312500) rotate(-90.000000) translate(-430.000000, -155.312500) "></path>
            <path d="M475.875,220 C480.155207,220 483.625,216.530207 483.625,212.25 C483.625,207.969793 480.155207,204.5 475.875,204.5" id="Oval-Copy-5" stroke="#B8A2BE" stroke-width="7" transform="translate(479.750000, 212.250000) rotate(-90.000000) translate(-479.750000, -212.250000) "></path>
            <path d="M152.625,225.75 C156.905207,225.75 160.375,222.780207 160.375,218.5 C160.375,214.219793 156.905207,210.75 152.625,210.75" id="Oval-Copy-6" stroke="#B8A2BE" stroke-width="7" transform="translate(156.500000, 218.250000) rotate(-90.000000) translate(-156.500000, -218.250000) "></path>
            <path d="M163.007878,142 C161.898958,142 161.204896,142.875558 161.47325,143.93549 C161.47325,143.93549 186.079696,259.142407 319.28075,259.142407 C452.481804,259.142407 478.187747,143.923433 478.187747,143.923433 C478.457487,142.86115 477.778886,142 476.668275,142 L163.007878,142 Z" id="Line-Copy-2" stroke="#7E6785" stroke-width="7" fill="#DED196" stroke-linecap="square" transform="translate(319.838077, 200.571203) scale(1, -1) translate(-319.838077, -200.571203) "></path>
            <path d="M237.160584,145.5 C236.052695,145.5 235.34756,146.381987 235.591138,147.448317 C235.591138,147.448317 258.036865,255.071203 318.018433,255.071203 C378,255.071203 400.443824,147.448317 400.443824,147.448317 C400.684913,146.372291 399.988704,145.5 398.874344,145.5 L237.160584,145.5 Z" id="Line-Copy-3" fill="#EADA91" transform="translate(318.017256, 200.285602) scale(1, -1) translate(-318.017256, -200.285602) "></path>
            <path d="M328.819285,157.609783 C330.099376,153.956838 334.061854,152.118252 337.663664,153.500857 L338.562349,153.84583 C342.166874,155.229477 343.962667,159.28513 342.578352,162.891394 L313.457164,238.754681 C312.070617,242.366761 308.028728,244.174865 304.404861,242.783793 L306.157894,243.456719 C302.544992,242.069856 300.651461,237.991175 301.933967,234.33134 L328.819285,157.609783 Z" id="Rectangle-Copy" fill="#FFFCFC" transform="translate(322.289093, 198.248753) rotate(-21.000000) translate(-322.289093, -198.248753) "></path>
            <path d="M398.865426,147.248393 C400.229272,143.629359 402.849568,143.428107 404.728126,146.817116 L404.265334,145.982216 C406.139367,149.363062 406.568132,155.048737 405.229448,158.664132 L372.29032,247.623094 C370.948752,251.246277 368.343915,251.446197 366.469869,248.065329 L366.528962,248.171936 C364.655983,244.792993 364.239609,239.129673 365.607097,235.500979 L398.865426,147.248393 Z" id="Rectangle-Copy-2" fill="#FFFCFC" transform="translate(385.404884, 197.437818) rotate(-61.000000) translate(-385.404884, -197.437818) "></path>
            <path d="M266.865426,147.248393 C268.229272,143.629359 270.849568,143.428107 272.728126,146.817116 L272.265334,145.982216 C274.139367,149.363062 274.568132,155.048737 273.229448,158.664132 L240.29032,247.623094 C238.948752,251.246277 236.343915,251.446197 234.469869,248.065329 L234.528962,248.171936 C232.655983,244.792993 232.239609,239.129673 233.607097,235.500979 L266.865426,147.248393 Z" id="Rectangle-Copy-3" fill="#FFFCFC" transform="translate(253.404884, 197.437818) scale(-1, 1) rotate(-61.000000) translate(-253.404884, -197.437818) "></path>
            <path d="M369.351316,429.809765 C369.351316,425.391487 372.902393,421.351818 377.285757,420.805244 C377.285757,420.805244 408.439274,416.623778 424.635204,416.623778 C440.831133,416.623778 481.40411,420.98803 481.40411,420.98803 C485.79323,421.441862 489.351316,425.400478 489.351316,429.809765 L489.351316,429.809765 C489.351316,434.228043 485.805782,437.344478 481.41508,436.785951 C481.41508,436.785951 446.722712,432.064567 429.280849,432.064567 C411.838987,432.064567 377.288783,436.782639 377.288783,436.782639 C372.905041,437.349905 369.351316,434.219053 369.351316,429.809765 L369.351316,429.809765 Z" id="Rectangle-3-Copy-2" fill="#909EA1" transform="translate(429.351316, 426.737237) rotate(77.000000) translate(-429.351316, -426.737237) "></path>
            <path d="M314.618273,564.5 C314.618273,554.816479 308.771192,544 303.103438,544 C271.4903,544 230.987315,560.456699 244.5,565.5 L314.618273,564.5 Z" id="Oval-2-Copy-16" stroke="#7E6785" stroke-width="7" fill="#D08E49"></path>
            <rect id="Rectangle-3" fill="#909FA1" x="353" y="546" width="120" height="16" rx="8"></rect>
            <path d="M264.279662,427.447434 C264.380273,426.90766 264.689952,426.8539 264.975029,427.333547 L346.5,564.50098 L281.5,564.50098 C281.5,564.50098 265.592161,536.945624 261.343642,500.470087 C257.095123,463.99455 264.279662,427.447434 264.279662,427.447434 Z" id="Path-8-Copy-7" stroke="#7E6785" stroke-width="7" fill="#98A4A6"></path>
            <path d="M316.5,560.5 L283.5,560.5 C283.5,560.5 264.5,538 266,488 C281,538 316.5,560.5 316.5,560.5 Z" id="Path-8-Copy-3" fill="#A0B3B7"></path>
            <path d="M322.403891,481.935949 C321.894293,478.951235 323.930567,476.358901 326.958057,476.145385 L325.811155,476.226271 C328.835949,476.012945 331.628167,478.276246 332.035413,481.28909 C332.035413,481.28909 334.383624,497.44587 334.383624,504.558378 C334.383624,511.670886 332.401236,519.951012 332.401236,519.951012 C331.786429,522.927274 328.838645,525.512755 325.811155,525.726271 L326.958057,525.645385 C323.933263,525.858711 322.014244,523.619889 322.636082,520.661994 C322.636082,520.661994 325.147138,510.06375 325.147138,503.580483 C325.147138,497.097215 322.403891,481.935949 322.403891,481.935949 Z" id="Rectangle-7-Copy-9" fill="#FFFFFF" transform="translate(328.354688, 500.935828) rotate(59.000000) translate(-328.354688, -500.935828) "></path>
            <path d="M310.403891,463.935949 C309.894293,460.951235 311.930567,458.358901 314.958057,458.145385 L313.811155,458.226271 C316.835949,458.012945 319.628167,460.276246 320.035413,463.28909 C320.035413,463.28909 322.383624,479.44587 322.383624,486.558378 C322.383624,493.670886 320.401236,501.951012 320.401236,501.951012 C319.786429,504.927274 316.838645,507.512755 313.811155,507.726271 L314.958057,507.645385 C311.933263,507.858711 310.014244,505.619889 310.636082,502.661994 C310.636082,502.661994 313.147138,492.06375 313.147138,485.580483 C313.147138,479.097215 310.403891,463.935949 310.403891,463.935949 Z" id="Rectangle-7-Copy-10" fill="#FFFFFF" transform="translate(316.354688, 482.935828) rotate(59.000000) translate(-316.354688, -482.935828) "></path>
            <path d="M300.403891,446.000121 C299.894293,443.015407 301.930567,440.423073 304.958057,440.209557 L303.811155,440.290443 C306.835949,440.077117 309.628167,442.340418 310.035413,445.353262 C310.035413,445.353262 312.383624,461.510042 312.383624,468.62255 C312.383624,475.735057 310.401236,484.015184 310.401236,484.015184 C309.786429,486.991446 306.838645,489.576927 303.811155,489.790443 L304.958057,489.709557 C301.933263,489.922883 300.014244,487.684061 300.636082,484.726166 C300.636082,484.726166 303.147138,474.127922 303.147138,467.644655 C303.147138,461.161387 300.403891,446.000121 300.403891,446.000121 Z" id="Rectangle-7-Copy-11" fill="#FFFFFF" transform="translate(306.354688, 465.000000) rotate(-284.000000) translate(-306.354688, -465.000000) "></path>
            <path d="M338.062203,413.686798 L338.062203,435.37312 C338.062203,443.65843 331.34419,450.375 323.061048,450.375 L310.559822,450.375 C310.008852,450.375 309.831685,450.72937 310.176823,451.171511 C310.176823,451.171511 338.062203,488.875 368.562203,476.875 C390.640591,468.188421 395.916368,417.563093 379.402672,395.375" id="Path-9-Copy-7" stroke="#7E6785" stroke-width="7" stroke-linecap="round"></path>
            <rect id="Rectangle-7" fill="#FFFFFF" x="356" y="415" width="11" height="33" rx="5.5"></rect>
            <rect id="Rectangle-7-Copy-4" fill="#FFFFFF" x="358" y="483" width="8" height="23" rx="4"></rect>
            <rect id="Rectangle-7-Copy-5" fill="#FFFFFF" x="358" y="512" width="8" height="23" rx="4"></rect>
            <rect id="Rectangle-7-Copy-6" fill="#FFFFFF" transform="translate(338.000000, 547.500000) rotate(68.000000) translate(-338.000000, -547.500000) " x="334" y="536" width="8" height="23" rx="4"></rect>
            <rect id="Rectangle-7-Copy-7" fill="#FFFFFF" transform="translate(307.000000, 554.500000) rotate(90.000000) translate(-307.000000, -554.500000) " x="303" y="543" width="8" height="23" rx="4"></rect>
            <rect id="Rectangle-7-Copy-8" fill="#FFFFFF" transform="translate(274.000000, 555.500000) rotate(90.000000) translate(-274.000000, -555.500000) " x="270" y="544" width="8" height="23" rx="4"></rect>
            <path d="M416.657247,531.020648 C416.657247,527.979109 419.125862,525.513455 422.157247,525.513455 L422.157247,525.513455 C425.194813,525.513455 427.657247,527.966858 427.657247,531.018334 L427.657247,553.008575 C427.657247,556.048836 425.188632,558.513455 422.157247,558.513455 L422.157247,558.513455 C419.119681,558.513455 416.657247,556.054337 416.657247,553.010212 L416.657247,541.847507 L416.657247,531.020648 Z" id="Rectangle-7-Copy" fill="#FFFFFF" transform="translate(422.157247, 542.013455) rotate(-81.000000) translate(-422.157247, -542.013455) "></path>
            <path d="M380.657247,524.020648 C380.657247,520.979109 383.125862,518.513455 386.157247,518.513455 L386.157247,518.513455 C389.194813,518.513455 391.657247,520.966858 391.657247,524.018334 L391.657247,546.008575 C391.657247,549.048836 389.188632,551.513455 386.157247,551.513455 L386.157247,551.513455 C383.119681,551.513455 380.657247,549.054337 380.657247,546.010212 L380.657247,534.847507 L380.657247,524.020648 Z" id="Rectangle-7-Copy-12" fill="#FFFFFF" transform="translate(386.157247, 535.013455) rotate(-81.000000) translate(-386.157247, -535.013455) "></path>
            <path d="M457.657247,538.020648 C457.657247,534.979109 460.125862,532.513455 463.157247,532.513455 L463.157247,532.513455 C466.194813,532.513455 468.657247,534.966858 468.657247,538.018334 L468.657247,560.008575 C468.657247,563.048836 466.188632,565.513455 463.157247,565.513455 L463.157247,565.513455 C460.119681,565.513455 457.657247,563.054337 457.657247,560.010212 L457.657247,548.847507 L457.657247,538.020648 Z" id="Rectangle-7-Copy-3" fill="#FFFFFF" transform="translate(463.157247, 549.013455) rotate(-81.000000) translate(-463.157247, -549.013455) "></path>
            <path d="M345.657247,449.020648 C345.657247,445.979109 348.125862,443.513455 351.157247,443.513455 L351.157247,443.513455 C354.194813,443.513455 356.657247,445.966858 356.657247,449.018334 L356.657247,471.008575 C356.657247,474.048836 354.188632,476.513455 351.157247,476.513455 L351.157247,476.513455 C348.119681,476.513455 345.657247,474.054337 345.657247,471.010212 L345.657247,459.847507 L345.657247,449.020648 Z" id="Rectangle-7-Copy-2" fill="#FFFFFF" transform="translate(351.157247, 460.013455) rotate(-81.000000) translate(-351.157247, -460.013455) "></path>
            <path d="M367.582374,129.474373 C367.143947,129.817368 367.08671,130.428896 367.453657,130.83928 L522.950877,304.743677 C523.318216,305.154499 523.625502,305.045848 523.637419,304.491699 L525.64531,211.129804 L616.119433,304.575732 C616.502914,304.971809 616.842209,304.84703 616.877364,304.295537 L620.476755,247.831119 L821.987582,462.131771 C823.123132,463.339394 823.192834,463.267662 822.15258,461.983055 L596.01106,182.721535 C595.665403,182.294684 595.330539,182.402765 595.264635,182.950355 L589.483752,230.983104 L496.3871,133.22337 C496.007245,132.824487 495.689869,132.942457 495.677755,133.508661 L493.944346,214.528154 L414.213596,94.2659827 C413.90677,93.8031792 413.30772,93.7020662 412.864195,94.0490494 L367.582374,129.474373 Z" id="Path-13-Copy" stroke="#B8A2BE" stroke-width="7" fill="#B8A2BE" transform="translate(595.050182, 278.418021) rotate(39.000000) translate(-595.050182, -278.418021) "></path>
        </g>
    </g>
</svg>