<?xml version="1.0" encoding="UTF-8"?>
<svg width="768px" height="578px" viewBox="0 0 768 578" version="1.1" xmlns="http://www.w3.org/2000/svg" xmlns:xlink="http://www.w3.org/1999/xlink" style="background: #FFFFFF;">
    <!-- Generator: Sketch 43.2 (39069) - http://www.bohemiancoding.com/sketch -->
    <title>212</title>
    <desc>Created with Sketch.</desc>
    <defs></defs>
    <g id="Page-1" stroke="none" stroke-width="1" fill="none" fill-rule="evenodd">
        <g id="212">
            <path d="M279.93291,389.019165 C307.030658,404.64541 334.130724,409.114279 340.462602,399.000664 C346.794479,388.887049 329.960414,368.02077 302.862666,352.394525 C275.764917,336.76828 248.664851,332.299411 242.332974,342.413026 C236.001097,352.526641 252.835162,373.39292 279.93291,389.019165 Z" id="Oval-2-Copy-15" stroke="#7E6785" stroke-width="7" fill="#D08E49" transform="translate(291.397788, 370.706845) rotate(-21.000000) translate(-291.397788, -370.706845) "></path>
            <path d="M421.570867,564 L272.5,564 C257.669557,537.119824 263.77218,512.5731 259.09568,474.486071 C247.624032,381.056992 278.826878,300.344684 328.789188,294.210083 C378.751497,288.075483 428.55356,358.84164 440.025208,452.270718 C442.294123,470.749543 443.33459,490.905614 442.898807,510.125491 L505.243271,563.35392 C505.659709,563.709466 505.552507,564 505.000497,564 L421.570867,564 Z" id="Combined-Shape-Copy-7" stroke="#7E6785" stroke-width="7" fill="#A2B4B7"></path>
            <path d="M341,427 C373.5848,427 395,401.480231 395,370 C395,338.519769 367.5848,312 335,312 C302.4152,312 282,338.519769 282,370 C282,401.480231 308.4152,427 341,427 Z" id="Oval" stroke="#FFF5F5" fill="#FFFDFD"></path>
            <path d="M341,427 C373.5848,427 395,401.480231 395,370 C395,338.519769 353.5,376 353.5,376 C353.5,376 317.748187,427 341,427 Z" id="Oval-Copy" fill="#E6E1E1"></path>
            <path d="M293.52461,380.650042 C297.440353,380.650042 304.186989,372.733565 304.186989,365.991347 C304.186989,359.249129 298.491986,353.783482 291.466844,353.783482 C284.441702,353.783482 282.474521,355.401469 278.7467,359.887414 C275.018878,364.37336 272.42323,370.696979 277.598581,375.663903 C282.773932,380.630827 289.608868,380.650042 293.52461,380.650042 Z" id="Oval-3-Copy-7" stroke="#7E6785" fill="#7E6785" transform="translate(289.440140, 367.216762) rotate(-26.000000) translate(-289.440140, -367.216762) "></path>
            <path d="M291.437696,373.786458 C293.352734,373.786458 296.652252,369.914816 296.652252,366.617459 C296.652252,363.320102 293.867047,360.647065 290.431322,360.647065 C286.995598,360.647065 286.033526,361.43836 284.210393,363.632262 C282.38726,365.826164 281.117829,368.918801 283.648892,371.347931 C286.179956,373.777061 289.522658,373.786458 291.437696,373.786458 Z" id="Oval-3-Copy-8" stroke="#F6F6F1" fill="#7E6785" transform="translate(289.440140, 367.216762) rotate(-26.000000) translate(-289.440140, -367.216762) "></path>
            <path d="M96.4743104,272.53929 L179.957097,366.653178 L177.137436,319.74713 L221.296308,368.31812 L220.37724,336.481639 L306.201077,435.975552 C307.281617,437.228202 307.344308,437.163368 306.350699,435.84349 L208.93637,306.441552 L206.245521,328.799537 L163.483114,283.89522 L162.682912,321.296658 L115.562293,252.744396 L96.4743104,272.53929 Z" id="Path-13-Copy" stroke="#B8A2BE" stroke-width="7" fill="#B8A2BE" transform="translate(201.765021, 344.810014) rotate(39.000000) translate(-201.765021, -344.810014) "></path>
            <path d="M271.445683,228.412002 L110.818022,228.412002 C81.4152285,209.106651 62,175.838967 62,138.036613 C62,78.3696393 110.369639,30 170.036613,30 C214.784518,30 253.178332,57.205094 269.580616,95.9778418 C280.251372,90.2115715 292.467104,86.9382151 305.447368,86.9382151 C347.173935,86.9382151 381,120.76428 381,162.490847 C381,191.178429 365.011266,216.131642 341.45884,228.925444 L271.445683,228.412002 Z" id="Combined-Shape" stroke="#B8A2BE" stroke-width="8" fill="#B8A2BE"></path>
            <path d="M314.033045,245 L314.033045,433.269781 C314.033045,433.269781 313.603633,440.299872 315.840713,446.562463" id="Path-3-Copy" stroke="#7E6785" stroke-width="7" stroke-linecap="round"></path>
            <path d="M157.007878,142 C155.898958,142 155.204896,142.875558 155.47325,143.93549 C155.47325,143.93549 180.079696,259.142407 313.28075,259.142407 C446.481804,259.142407 472.187747,143.923433 472.187747,143.923433 C472.457487,142.86115 471.778886,142 470.668275,142 L157.007878,142 Z" id="Line-Copy-2" stroke="#7E6785" stroke-width="7" fill="#DED196" stroke-linecap="square" transform="translate(313.838077, 200.571203) scale(1, -1) translate(-313.838077, -200.571203) "></path>
            <path d="M231.160584,145.5 C230.052695,145.5 229.34756,146.381987 229.591138,147.448317 C229.591138,147.448317 252.036865,255.071203 312.018433,255.071203 C372,255.071203 394.443824,147.448317 394.443824,147.448317 C394.684913,146.372291 393.988704,145.5 392.874344,145.5 L231.160584,145.5 Z" id="Line-Copy-3" fill="#EADA91" transform="translate(312.017256, 200.285602) scale(1, -1) translate(-312.017256, -200.285602) "></path>
            <path d="M320.819285,156.609783 C322.099376,152.956838 326.061854,151.118252 329.663664,152.500857 L330.562349,152.84583 C334.166874,154.229477 335.962667,158.28513 334.578352,161.891394 L305.457164,237.754681 C304.070617,241.366761 300.028728,243.174865 296.404861,241.783793 L298.157894,242.456719 C294.544992,241.069856 292.651461,236.991175 293.933967,233.33134 L320.819285,156.609783 Z" id="Rectangle-Copy" fill="#FFFCFC" transform="translate(314.289093, 197.248753) rotate(-21.000000) translate(-314.289093, -197.248753) "></path>
            <path d="M390.865426,146.248393 C392.229272,142.629359 394.849568,142.428107 396.728126,145.817116 L396.265334,144.982216 C398.139367,148.363062 398.568132,154.048737 397.229448,157.664132 L364.29032,246.623094 C362.948752,250.246277 360.343915,250.446197 358.469869,247.065329 L358.528962,247.171936 C356.655983,243.792993 356.239609,238.129673 357.607097,234.500979 L390.865426,146.248393 Z" id="Rectangle-Copy-2" fill="#FFFCFC" transform="translate(377.404884, 196.437818) rotate(-61.000000) translate(-377.404884, -196.437818) "></path>
            <path d="M258.865426,146.248393 C260.229272,142.629359 262.849568,142.428107 264.728126,145.817116 L264.265334,144.982216 C266.139367,148.363062 266.568132,154.048737 265.229448,157.664132 L232.29032,246.623094 C230.948752,250.246277 228.343915,250.446197 226.469869,247.065329 L226.528962,247.171936 C224.655983,243.792993 224.239609,238.129673 225.607097,234.500979 L258.865426,146.248393 Z" id="Rectangle-Copy-3" fill="#FFFCFC" transform="translate(245.404884, 196.437818) scale(-1, 1) rotate(-61.000000) translate(-245.404884, -196.437818) "></path>
            <path d="M361.351316,428.809765 C361.351316,424.391487 364.902393,420.351818 369.285757,419.805244 C369.285757,419.805244 400.439274,415.623778 416.635204,415.623778 C432.831133,415.623778 473.40411,419.98803 473.40411,419.98803 C477.79323,420.441862 481.351316,424.400478 481.351316,428.809765 L481.351316,428.809765 C481.351316,433.228043 477.805782,436.344478 473.41508,435.785951 C473.41508,435.785951 438.722712,431.064567 421.280849,431.064567 C403.838987,431.064567 369.288783,435.782639 369.288783,435.782639 C364.905041,436.349905 361.351316,433.219053 361.351316,428.809765 L361.351316,428.809765 Z" id="Rectangle-3-Copy-2" fill="#909EA1" transform="translate(421.351316, 425.737237) rotate(77.000000) translate(-421.351316, -425.737237) "></path>
            <path d="M306.618273,563.5 C306.618273,553.816479 300.771192,543 295.103438,543 C263.4903,543 230.605588,558.456699 244.118273,563.5 L306.618273,563.5 Z" id="Oval-2-Copy-16" stroke="#7E6785" stroke-width="7" fill="#D08E49"></path>
            <rect id="Rectangle-3" fill="#909FA1" x="345" y="545" width="120" height="16" rx="8"></rect>
            <path d="M256.279662,426.447434 C256.380273,425.90766 256.689952,425.8539 256.975029,426.333547 L338.5,563.50098 L273.5,563.50098 C273.5,563.50098 257.592161,535.945624 253.343642,499.470087 C249.095123,462.99455 256.279662,426.447434 256.279662,426.447434 Z" id="Path-8-Copy-7" stroke="#7E6785" stroke-width="7" fill="#98A4A6"></path>
            <path d="M314.403891,480.935949 C313.894293,477.951235 315.930567,475.358901 318.958057,475.145385 L317.811155,475.226271 C320.835949,475.012945 323.628167,477.276246 324.035413,480.28909 C324.035413,480.28909 326.383624,496.44587 326.383624,503.558378 C326.383624,510.670886 324.401236,518.951012 324.401236,518.951012 C323.786429,521.927274 320.838645,524.512755 317.811155,524.726271 L318.958057,524.645385 C315.933263,524.858711 314.014244,522.619889 314.636082,519.661994 C314.636082,519.661994 317.147138,509.06375 317.147138,502.580483 C317.147138,496.097215 314.403891,480.935949 314.403891,480.935949 Z" id="Rectangle-7-Copy-9" fill="#FFFFFF" transform="translate(320.354688, 499.935828) rotate(59.000000) translate(-320.354688, -499.935828) "></path>
            <path d="M302.403891,462.935949 C301.894293,459.951235 303.930567,457.358901 306.958057,457.145385 L305.811155,457.226271 C308.835949,457.012945 311.628167,459.276246 312.035413,462.28909 C312.035413,462.28909 314.383624,478.44587 314.383624,485.558378 C314.383624,492.670886 312.401236,500.951012 312.401236,500.951012 C311.786429,503.927274 308.838645,506.512755 305.811155,506.726271 L306.958057,506.645385 C303.933263,506.858711 302.014244,504.619889 302.636082,501.661994 C302.636082,501.661994 305.147138,491.06375 305.147138,484.580483 C305.147138,478.097215 302.403891,462.935949 302.403891,462.935949 Z" id="Rectangle-7-Copy-10" fill="#FFFFFF" transform="translate(308.354688, 481.935828) rotate(59.000000) translate(-308.354688, -481.935828) "></path>
            <path d="M292.403891,445.000121 C291.894293,442.015407 293.930567,439.423073 296.958057,439.209557 L295.811155,439.290443 C298.835949,439.077117 301.628167,441.340418 302.035413,444.353262 C302.035413,444.353262 304.383624,460.510042 304.383624,467.62255 C304.383624,474.735057 302.401236,483.015184 302.401236,483.015184 C301.786429,485.991446 298.838645,488.576927 295.811155,488.790443 L296.958057,488.709557 C293.933263,488.922883 292.014244,486.684061 292.636082,483.726166 C292.636082,483.726166 295.147138,473.127922 295.147138,466.644655 C295.147138,460.161387 292.403891,445.000121 292.403891,445.000121 Z" id="Rectangle-7-Copy-11" fill="#FFFFFF" transform="translate(298.354688, 464.000000) rotate(-284.000000) translate(-298.354688, -464.000000) "></path>
            <path d="M330.062203,412.686798 L330.062203,434.37312 C330.062203,442.65843 323.34419,449.375 315.061048,449.375 L302.559822,449.375 C302.008852,449.375 301.831685,449.72937 302.176823,450.171511 C302.176823,450.171511 330.062203,487.875 360.562203,475.875 C382.640591,467.188421 387.916368,416.563093 371.402672,394.375" id="Path-9-Copy-7" stroke="#7E6785" stroke-width="7" stroke-linecap="round"></path>
            <rect id="Rectangle-7" fill="#FFFFFF" x="348" y="414" width="11" height="33" rx="5.5"></rect>
            <rect id="Rectangle-7-Copy-4" fill="#FFFFFF" x="350" y="482" width="8" height="23" rx="4"></rect>
            <rect id="Rectangle-7-Copy-5" fill="#FFFFFF" x="350" y="511" width="8" height="23" rx="4"></rect>
            <rect id="Rectangle-7-Copy-6" fill="#FFFFFF" transform="translate(330.000000, 546.500000) rotate(68.000000) translate(-330.000000, -546.500000) " x="326" y="535" width="8" height="23" rx="4"></rect>
            <path d="M408.657247,530.020648 C408.657247,526.979109 411.125862,524.513455 414.157247,524.513455 L414.157247,524.513455 C417.194813,524.513455 419.657247,526.966858 419.657247,530.018334 L419.657247,552.008575 C419.657247,555.048836 417.188632,557.513455 414.157247,557.513455 L414.157247,557.513455 C411.119681,557.513455 408.657247,555.054337 408.657247,552.010212 L408.657247,540.847507 L408.657247,530.020648 Z" id="Rectangle-7-Copy" fill="#FFFFFF" transform="translate(414.157247, 541.013455) rotate(-81.000000) translate(-414.157247, -541.013455) "></path>
            <path d="M372.657247,523.020648 C372.657247,519.979109 375.125862,517.513455 378.157247,517.513455 L378.157247,517.513455 C381.194813,517.513455 383.657247,519.966858 383.657247,523.018334 L383.657247,545.008575 C383.657247,548.048836 381.188632,550.513455 378.157247,550.513455 L378.157247,550.513455 C375.119681,550.513455 372.657247,548.054337 372.657247,545.010212 L372.657247,533.847507 L372.657247,523.020648 Z" id="Rectangle-7-Copy-12" fill="#FFFFFF" transform="translate(378.157247, 534.013455) rotate(-81.000000) translate(-378.157247, -534.013455) "></path>
            <path d="M449.657247,537.020648 C449.657247,533.979109 452.125862,531.513455 455.157247,531.513455 L455.157247,531.513455 C458.194813,531.513455 460.657247,533.966858 460.657247,537.018334 L460.657247,559.008575 C460.657247,562.048836 458.188632,564.513455 455.157247,564.513455 L455.157247,564.513455 C452.119681,564.513455 449.657247,562.054337 449.657247,559.010212 L449.657247,547.847507 L449.657247,537.020648 Z" id="Rectangle-7-Copy-3" fill="#FFFFFF" transform="translate(455.157247, 548.013455) rotate(-81.000000) translate(-455.157247, -548.013455) "></path>
            <path d="M337.657247,448.020648 C337.657247,444.979109 340.125862,442.513455 343.157247,442.513455 L343.157247,442.513455 C346.194813,442.513455 348.657247,444.966858 348.657247,448.018334 L348.657247,470.008575 C348.657247,473.048836 346.188632,475.513455 343.157247,475.513455 L343.157247,475.513455 C340.119681,475.513455 337.657247,473.054337 337.657247,470.010212 L337.657247,458.847507 L337.657247,448.020648 Z" id="Rectangle-7-Copy-2" fill="#FFFFFF" transform="translate(343.157247, 459.013455) rotate(-81.000000) translate(-343.157247, -459.013455) "></path>
            <path d="M367.582374,129.474373 C367.143947,129.817368 367.08671,130.428896 367.453657,130.83928 L522.950877,304.743677 C523.318216,305.154499 523.625502,305.045848 523.637419,304.491699 L525.64531,211.129804 L616.119433,304.575732 C616.502914,304.971809 616.842209,304.84703 616.877364,304.295537 L620.476755,247.831119 L821.987582,462.131771 C823.123132,463.339394 823.192834,463.267662 822.15258,461.983055 L596.01106,182.721535 C595.665403,182.294684 595.330539,182.402765 595.264635,182.950355 L589.483752,230.983104 L496.3871,133.22337 C496.007245,132.824487 495.689869,132.942457 495.677755,133.508661 L493.944346,214.528154 L414.213596,94.2659827 C413.90677,93.8031792 413.30772,93.7020662 412.864195,94.0490494 L367.582374,129.474373 Z" id="Path-13-Copy" stroke="#B8A2BE" stroke-width="7" fill="#B8A2BE" transform="translate(595.050182, 278.418021) rotate(39.000000) translate(-595.050182, -278.418021) "></path>
            <path d="M311.5,558.5 L278.5,558.5 C278.5,558.5 259.5,536 261,486 C276,536 311.5,558.5 311.5,558.5 Z" id="Path-8-Copy-3" fill="#A0B3B7"></path>
        </g>
    </g>
</svg>