<?xml version="1.0" encoding="UTF-8"?>
<svg width="768px" height="578px" viewBox="0 0 768 578" version="1.1" xmlns="http://www.w3.org/2000/svg" xmlns:xlink="http://www.w3.org/1999/xlink" style="background: #FFFFFF;">
    <!-- Generator: Sketch 43.2 (39069) - http://www.bohemiancoding.com/sketch -->
    <title>504</title>
    <desc>Created with Sketch.</desc>
    <defs></defs>
    <g id="Page-1" stroke="none" stroke-width="1" fill="none" fill-rule="evenodd">
        <g id="504">
            <path d="M339.285602,381.978682 C366.38335,397.604927 393.483416,402.073797 399.815293,391.960182 C406.14717,381.846567 389.313105,360.980287 362.215357,345.354042 C335.117609,329.727798 308.017543,325.258928 301.685666,335.372543 C295.353788,345.486158 312.187853,366.352437 339.285602,381.978682 Z" id="Oval-2-Copy-15" stroke="#7E6785" stroke-width="7" fill="#D08E49" transform="translate(350.750479, 363.666362) rotate(-24.000000) translate(-350.750479, -363.666362) "></path>
            <path d="M449.459792,567.993908 L456.502409,568 C456.504443,567.994999 456.506476,567.989997 456.508509,567.984995 L542.505527,567.876257 C543.054759,567.875563 543.161421,567.582754 542.747079,567.225112 L472.985691,507.010187 C475.180092,493.022234 476.442095,478.542147 476.442095,464.233146 C476.442095,371.527652 435.153326,296.375 384.221048,296.375 C333.288769,296.375 292,371.527652 292,464.233146 C292,502.025202 300.420754,539.819129 312,567.875 L444.641734,567.98974 L444.641734,568 L449.459792,567.993908 Z" id="Combined-Shape-Copy-7" stroke="#7E6785" stroke-width="7" fill="#EFD2FD"></path>
            <path d="M399.351316,425.185988 C399.351316,420.76771 402.902393,416.728041 407.285757,416.181467 C407.285757,416.181467 438.439274,412 454.635204,412 C470.831133,412 511.40411,416.364253 511.40411,416.364253 C515.79323,416.818084 519.351316,420.7767 519.351316,425.185988 L519.351316,425.185988 C519.351316,429.604266 515.805782,432.720701 511.41508,432.162173 C511.41508,432.162173 476.722712,427.440789 459.280849,427.440789 C441.838987,427.440789 407.288783,432.158861 407.288783,432.158861 C402.905041,432.726128 399.351316,429.595276 399.351316,425.185988 L399.351316,425.185988 Z" id="Rectangle-3-Copy" fill="#E1C2E0" transform="translate(459.351316, 422.113460) rotate(81.000000) translate(-459.351316, -422.113460) "></path>
            <path d="M366.033045,239 L366.033045,427.269781 C366.033045,427.269781 363.985068,443.426649 373.692409,448.011677" id="Path-3-Copy" stroke="#7E6785" stroke-width="7" stroke-linecap="round"></path>
            <path d="M448.666667,10.1399526 L448.666667,219.736972" id="Line-Copy-9" stroke="#B8A2BE" stroke-width="7" stroke-linecap="round"></path>
            <path d="M262.666667,10.1399526 L262.666667,219.736972" id="Line-Copy-16" stroke="#B8A2BE" stroke-width="7" stroke-linecap="round"></path>
            <path d="M510,9.375 L510,250.110047" id="Line-Copy-11" stroke="#B8A2BE" stroke-width="7" stroke-linecap="round"></path>
            <path d="M323.666667,10.1399526 L323.666667,219.736972" id="Line-Copy-18" stroke="#B8A2BE" stroke-width="7" stroke-linecap="round"></path>
            <path d="M113,108.375 L113,315.236972" id="Line-Copy-21" stroke="#B8A2BE" stroke-width="7" stroke-linecap="round"></path>
            <path d="M174,339.375 L174,546.236972" id="Line-Copy-22" stroke="#B8A2BE" stroke-width="7" stroke-linecap="round"></path>
            <path d="M302,114.375 L302,143.875" id="Line-Copy-27" stroke="#B8A2BE" stroke-width="7" stroke-linecap="round"></path>
            <path d="M240,167.375 L240,196.875" id="Line-Copy-28" stroke="#B8A2BE" stroke-width="7" stroke-linecap="round"></path>
            <path d="M359,101.375 L359,130.875" id="Line-Copy-29" stroke="#B8A2BE" stroke-width="7" stroke-linecap="round"></path>
            <path d="M415,113.375 L415,142.875" id="Line-Copy-30" stroke="#B8A2BE" stroke-width="7" stroke-linecap="round"></path>
            <path d="M486,152.375 L486,181.875" id="Line-Copy-31" stroke="#B8A2BE" stroke-width="7" stroke-linecap="round"></path>
            <path d="M520,210.375 L520,239.875" id="Line-Copy-32" stroke="#B8A2BE" stroke-width="7" stroke-linecap="round"></path>
            <path d="M417,10.375 L417,55.375" id="Line-Copy-24" stroke="#B8A2BE" stroke-width="7" stroke-linecap="round"></path>
            <path d="M606,212.375 L606,419.236972" id="Line-Copy-25" stroke="#B8A2BE" stroke-width="7" stroke-linecap="round"></path>
            <path d="M390.666667,10.1399526 L390.666667,219.736972" id="Line-Copy-20" stroke="#B8A2BE" stroke-width="7" stroke-linecap="round"></path>
            <path d="M211,10.375 L211,251.05621" id="Line-Copy-19" stroke="#B8A2BE" stroke-width="7" stroke-linecap="round"></path>
            <path d="M208.007878,134 C206.898958,134 206.204896,134.875558 206.47325,135.93549 C206.47325,135.93549 231.079696,251.142407 364.28075,251.142407 C497.481804,251.142407 523.187747,135.923433 523.187747,135.923433 C523.457487,134.86115 522.778886,134 521.668275,134 L208.007878,134 Z" id="Line-Copy-2" stroke="#7E6785" stroke-width="7" fill="#DED196" stroke-linecap="square" transform="translate(364.838077, 192.571203) scale(1, -1) translate(-364.838077, -192.571203) "></path>
            <path d="M284.160584,137.5 C283.052695,137.5 282.34756,138.381987 282.591138,139.448317 C282.591138,139.448317 305.036865,247.071203 365.018433,247.071203 C425,247.071203 447.443824,139.448317 447.443824,139.448317 C447.684913,138.372291 446.988704,137.5 445.874344,137.5 L284.160584,137.5 Z" id="Line-Copy-3" fill="#EADA91" transform="translate(365.017256, 192.285602) scale(1, -1) translate(-365.017256, -192.285602) "></path>
            <path d="M630.666667,11.1937903 L630.666667,509.542331" id="Line-Copy-10" stroke="#B8A2BE" stroke-width="7" stroke-linecap="round"></path>
            <path d="M141.666667,11.1937903 L141.666667,509.542331" id="Line-Copy-17" stroke="#B8A2BE" stroke-width="7" stroke-linecap="round"></path>
            <path d="M691.666667,10.8187903 L691.666667,509.167331" id="Line-Copy-13" stroke="#B8A2BE" stroke-width="7" stroke-linecap="round"></path>
            <path d="M576.666667,11.1937903 L576.666667,509.542331" id="Line-Copy-12" stroke="#B8A2BE" stroke-width="7" stroke-linecap="round"></path>
            <path d="M80.6666667,11.1937903 L80.6666667,509.542331" id="Line-Copy-15" stroke="#B8A2BE" stroke-width="7" stroke-linecap="round"></path>
            <path d="M289.875,117 C294.155207,117 297.625,113.530207 297.625,109.25 C297.625,104.969793 294.155207,101.5 289.875,101.5" id="Oval" stroke="#B8A2BE" stroke-width="7" transform="translate(293.750000, 109.250000) rotate(-90.000000) translate(-293.750000, -109.250000) "></path>
            <path d="M227.875,171 C232.155207,171 235.625,167.530207 235.625,163.25 C235.625,158.969793 232.155207,155.5 227.875,155.5" id="Oval-Copy" stroke="#B8A2BE" stroke-width="7" transform="translate(231.750000, 163.250000) rotate(-90.000000) translate(-231.750000, -163.250000) "></path>
            <path d="M418.875,116 C423.155207,116 426.625,112.530207 426.625,108.25 C426.625,103.969793 423.155207,100.5 418.875,100.5" id="Oval-Copy-3" stroke="#B8A2BE" stroke-width="7" transform="translate(422.750000, 108.250000) rotate(-90.000000) translate(-422.750000, -108.250000) "></path>
            <path d="M346.875,104 C351.155207,104 354.625,100.530207 354.625,96.25 C354.625,91.9697932 351.155207,88.5 346.875,88.5" id="Oval-Copy-2" stroke="#B8A2BE" stroke-width="7" transform="translate(350.750000, 96.250000) rotate(-90.000000) translate(-350.750000, -96.250000) "></path>
            <path d="M362.875,124 C367.155207,124 370.625,120.530207 370.625,116.25 C370.625,111.969793 367.155207,108.5 362.875,108.5" id="Oval-Copy-7" stroke="#B8A2BE" stroke-width="7" transform="translate(366.750000, 116.250000) rotate(-90.000000) translate(-366.750000, -116.250000) "></path>
            <path d="M490.875,176 C495.155207,176 498.625,172.530207 498.625,168.25 C498.625,163.969793 495.155207,160.5 490.875,160.5" id="Oval-Copy-8" stroke="#B8A2BE" stroke-width="7" transform="translate(494.750000, 168.250000) rotate(-90.000000) translate(-494.750000, -168.250000) "></path>
            <path d="M473.875,155 C478.155207,155 481.625,151.530207 481.625,147.25 C481.625,142.969793 478.155207,139.5 473.875,139.5" id="Oval-Copy-4" stroke="#B8A2BE" stroke-width="7" transform="translate(477.750000, 147.250000) rotate(-90.000000) translate(-477.750000, -147.250000) "></path>
            <path d="M523.875,214 C528.155207,214 531.625,210.530207 531.625,206.25 C531.625,201.969793 528.155207,198.5 523.875,198.5" id="Oval-Copy-5" stroke="#B8A2BE" stroke-width="7" transform="translate(527.750000, 206.250000) rotate(-90.000000) translate(-527.750000, -206.250000) "></path>
            <path d="M199.875,224 C204.155207,224 207.625,220.530207 207.625,216.25 C207.625,211.969793 204.155207,208.5 199.875,208.5" id="Oval-Copy-6" stroke="#B8A2BE" stroke-width="7" transform="translate(203.750000, 216.250000) rotate(-90.000000) translate(-203.750000, -216.250000) "></path>
            <path d="M344.52461,371.650042 C348.440353,371.650042 355.186989,363.733565 355.186989,356.991347 C355.186989,350.249129 349.491986,344.783482 342.466844,344.783482 C335.441702,344.783482 333.474521,346.401469 329.7467,350.887414 C326.018878,355.37336 323.42323,361.696979 328.598581,366.663903 C333.773932,371.630827 340.608868,371.650042 344.52461,371.650042 Z" id="Oval-3-Copy-7" stroke="#7E6785" fill="#7E6785" transform="translate(340.440140, 358.216762) rotate(-26.000000) translate(-340.440140, -358.216762) "></path>
            <path d="M342.437696,364.786458 C344.352734,364.786458 347.652252,360.914816 347.652252,357.617459 C347.652252,354.320102 344.867047,351.647065 341.431322,351.647065 C337.995598,351.647065 337.033526,352.43836 335.210393,354.632262 C333.38726,356.826164 332.117829,359.918801 334.648892,362.347931 C337.179956,364.777061 340.522658,364.786458 342.437696,364.786458 Z" id="Oval-3-Copy-8" stroke="#F6F6F1" fill="#7E6785" transform="translate(340.440140, 358.216762) rotate(-26.000000) translate(-340.440140, -358.216762) "></path>
            <path d="M343.5,568 C343.5,558.316479 336.771192,547 331.103438,547 C299.4903,547 273.487315,562.956699 287,568 L343.5,568 Z" id="Oval-2-Copy-16" stroke="#7E6785" stroke-width="7" fill="#D08E49"></path>
            <path d="M294.276056,430.81662 C294.378659,430.280057 294.696311,430.216935 294.995084,430.690749 L381.5,567.87598 L311.5,567.87598 C311.5,567.87598 295.592161,539.320624 291.343642,502.845087 C287.095123,466.36955 294.276056,430.81662 294.276056,430.81662 Z" id="Path-8-Copy-7" stroke="#7E6785" stroke-width="7" fill="#D9EFF2"></path>
            <path d="M294.090339,496.497338 C294.040446,495.946523 294.240452,495.878707 294.541734,496.352412 C294.541734,496.352412 313.990446,527.039352 321.54745,536.5 C329.104454,545.960648 349.012188,564.370011 349.012188,564.370011 L313.055726,564.370011 C313.055726,564.370011 302.64183,540.092743 299,526 C295.35817,511.907257 294.090339,496.497338 294.090339,496.497338 Z" id="Path-8-Copy-8" fill="#CFDFE1"></path>
            <path d="M433.729668,414 C421.130006,417.123504 412.855259,453.559196 412.855259,453.559196 C410.653595,461.534632 402.153298,467.97926 393.867407,468.177457 C393.867407,468.177457 362.031739,467 368,476 C371.5,490.5 419.803726,499.5 433.729668,480 C456.939571,446.5 433.729668,414 433.729668,414 Z" id="Path-9-Copy-8" fill="#E0C2E0"></path>
            <path d="M385.062203,412.686798 L385.062203,434.37312 C385.062203,442.65843 378.34419,449.375 370.061048,449.375 L357.559822,449.375 C357.008852,449.375 356.738304,449.793631 356.960282,450.293977 C356.960282,450.293977 373.5,492 415.562203,475.875 C437.697082,467.389355 442.916368,416.563093 426.402672,394.375" id="Path-9-Copy-7" stroke="#7E6785" stroke-width="7" fill="#EFD2FD" stroke-linecap="round"></path>
            <path d="M659,485.375 L659,560.236972" id="Line-Copy-23" stroke="#B8A2BE" stroke-width="7" stroke-linecap="round"></path>
            <path d="M174,483.375 L174,512.875" id="Line-Copy-29" stroke="#B8A2BE" stroke-width="7" stroke-linecap="round"></path>
            <path d="M161.875,486 C166.155207,486 169.625,482.530207 169.625,478.25 C169.625,473.969793 166.155207,470.5 161.875,470.5" id="Oval-Copy-2" stroke="#B8A2BE" stroke-width="7" transform="translate(165.750000, 478.250000) rotate(-90.000000) translate(-165.750000, -478.250000) "></path>
            <path d="M177.875,506 C182.155207,506 185.625,502.530207 185.625,498.25 C185.625,493.969793 182.155207,490.5 177.875,490.5" id="Oval-Copy-7" stroke="#B8A2BE" stroke-width="7" transform="translate(181.750000, 498.250000) rotate(-90.000000) translate(-181.750000, -498.250000) "></path>
            <path d="M114,474.375 L114,503.875" id="Line-Copy-29" stroke="#B8A2BE" stroke-width="7" stroke-linecap="round"></path>
            <path d="M101.875,477 C106.155207,477 109.625,473.530207 109.625,469.25 C109.625,464.969793 106.155207,461.5 101.875,461.5" id="Oval-Copy-2" stroke="#B8A2BE" stroke-width="7" transform="translate(105.750000, 469.250000) rotate(-90.000000) translate(-105.750000, -469.250000) "></path>
            <path d="M117.875,497 C122.155207,497 125.625,493.530207 125.625,489.25 C125.625,484.969793 122.155207,481.5 117.875,481.5" id="Oval-Copy-7" stroke="#B8A2BE" stroke-width="7" transform="translate(121.750000, 489.250000) rotate(-90.000000) translate(-121.750000, -489.250000) "></path>
            <path d="M659,467.375 L659,496.875" id="Line-Copy-29" stroke="#B8A2BE" stroke-width="7" stroke-linecap="round"></path>
            <path d="M646.875,470 C651.155207,470 654.625,466.530207 654.625,462.25 C654.625,457.969793 651.155207,454.5 646.875,454.5" id="Oval-Copy-2" stroke="#B8A2BE" stroke-width="7" transform="translate(650.750000, 462.250000) rotate(-90.000000) translate(-650.750000, -462.250000) "></path>
            <path d="M662.875,490 C667.155207,490 670.625,486.530207 670.625,482.25 C670.625,477.969793 667.155207,474.5 662.875,474.5" id="Oval-Copy-7" stroke="#B8A2BE" stroke-width="7" transform="translate(666.750000, 482.250000) rotate(-90.000000) translate(-666.750000, -482.250000) "></path>
            <path d="M555,504.375 L555,533.875" id="Line-Copy-29" stroke="#B8A2BE" stroke-width="7" stroke-linecap="round"></path>
            <path d="M542.875,507 C547.155207,507 550.625,503.530207 550.625,499.25 C550.625,494.969793 547.155207,491.5 542.875,491.5" id="Oval-Copy-2" stroke="#B8A2BE" stroke-width="7" transform="translate(546.750000, 499.250000) rotate(-90.000000) translate(-546.750000, -499.250000) "></path>
            <path d="M558.875,527 C563.155207,527 566.625,523.530207 566.625,519.25 C566.625,514.969793 563.155207,511.5 558.875,511.5" id="Oval-Copy-7" stroke="#B8A2BE" stroke-width="7" transform="translate(562.750000, 519.250000) rotate(-90.000000) translate(-562.750000, -519.250000) "></path>
            <path d="M79,523 C79,523 99.0347955,498.837206 149.5,501 C199.965205,503.162794 189.487651,529.743996 254,530.5 C318.512349,531.256004 339.557628,504 405.5,504 C471.442372,504 468.880921,532.092304 527,530.5 C585.119079,528.907696 583.830933,498.360968 624.5,498 C665.169067,497.639032 696,529 696,529 L696,578 L79,578 L79,523 Z" id="Path-14" fill="#B8A2BE"></path>
            <path d="M301.5,540.934684 C301.5,540.934684 367.140847,520.970323 406,519 C444.859153,517.029677 478,540.934684 478,540.934684" id="Path-15" stroke="#FAF9FB" stroke-width="6" stroke-linecap="round"></path>
            <path d="M73,546 C73,546 101.140847,516.470323 140,514.5 C162.062806,513.381322 180.167427,525.193248 194.5,532.5 C208.832573,539.806752 215,542 215,542" id="Path-15" stroke="#FAF9FB" stroke-width="6" stroke-linecap="round"></path>
            <path d="M524,544.205509 C524,544.205509 544.370337,553.34822 570.000411,540.989089 C590.136863,531.27905 609.402669,517.366907 626.5,516.5 C665.359153,514.529677 698,550.934684 698,550.934684" id="Path-15" stroke="#FAF9FB" stroke-width="6" stroke-linecap="round"></path>
        </g>
    </g>
</svg>