<?xml version="1.0" encoding="UTF-8"?>
<svg width="768px" height="578px" viewBox="0 0 768 578" version="1.1" xmlns="http://www.w3.org/2000/svg" xmlns:xlink="http://www.w3.org/1999/xlink" style="background: #FFFFFF;">
    <!-- Generator: Sketch 43.2 (39069) - http://www.bohemiancoding.com/sketch -->
    <title>701</title>
    <desc>Created with Sketch.</desc>
    <defs>
        <linearGradient x1="0%" y1="50%" x2="100%" y2="50%" id="linearGradient-1">
            <stop stop-color="#BEA0C8" offset="0%"></stop>
            <stop stop-color="#BD9FC6" stop-opacity="0" offset="100%"></stop>
        </linearGradient>
    </defs>
    <g id="Page-1" stroke="none" stroke-width="1" fill="none" fill-rule="evenodd">
        <g id="701">
            <path d="M102,113 C102,113 154.275986,81.5041938 252,83 C349.724014,84.4958062 391.012735,113.452085 457.338174,118.43896 C523.663613,123.425836 651,113 651,113 L651,133 C651,133 538.176348,145 457.338174,139 C376.5,133 331.431429,104.341225 252,103 C172.568571,101.658775 102,134 102,134 L102,113 Z" id="Rectangle-8-Copy-19" fill="url(#linearGradient-1)"></path>
            <path d="M102,173 C102,173 154.275986,141.504194 252,143 C349.724014,144.495806 391.012735,173.452085 457.338174,178.43896 C523.663613,183.425836 651,173 651,173 L651,193 C651,193 538.176348,205 457.338174,199 C376.5,193 331.431429,164.341225 252,163 C172.568571,161.658775 102,194 102,194 L102,173 Z" id="Rectangle-8-Copy-19" fill="url(#linearGradient-1)" transform="translate(376.500000, 171.814179) scale(-1, -1) translate(-376.500000, -171.814179) "></path>
            <path d="M102,233 C102,233 154.275986,201.504194 252,203 C349.724014,204.495806 391.012735,233.452085 457.338174,238.43896 C523.663613,243.425836 651,233 651,233 L651,253 C651,253 538.176348,265 457.338174,259 C376.5,253 331.431429,224.341225 252,223 C172.568571,221.658775 102,254 102,254 L102,233 Z" id="Rectangle-8-Copy-19" fill="url(#linearGradient-1)"></path>
            <path d="M102,353 C102,353 154.275986,321.504194 252,323 C349.724014,324.495806 391.012735,353.452085 457.338174,358.43896 C523.663613,363.425836 651,353 651,353 L651,373 C651,373 538.176348,385 457.338174,379 C376.5,373 331.431429,344.341225 252,343 C172.568571,341.658775 102,374 102,374 L102,353 Z" id="Rectangle-8-Copy-19" fill="url(#linearGradient-1)"></path>
            <path d="M287.93291,378.019165 C315.030658,393.64541 342.130724,398.114279 348.462602,388.000664 C354.794479,377.887049 337.960414,357.02077 310.862666,341.394525 C283.764917,325.76828 256.664851,321.299411 250.332974,331.413026 C244.001097,341.526641 260.835162,362.39292 287.93291,378.019165 Z" id="Oval-2-Copy-15" stroke="#7E6785" stroke-width="7" fill="#D08E49" transform="translate(299.397788, 359.706845) rotate(-21.000000) translate(-299.397788, -359.706845) "></path>
            <path d="M429.570867,553 L280.5,553 C265.669557,526.119824 271.77218,501.5731 267.09568,463.486071 C255.624032,370.056992 286.826878,289.344684 336.789188,283.210083 C386.751497,277.075483 436.55356,347.84164 448.025208,441.270718 C450.294123,459.749543 451.33459,479.905614 450.898807,499.125491 L513.243271,552.35392 C513.659709,552.709466 513.552507,553 513.000497,553 L429.570867,553 Z" id="Combined-Shape-Copy-7" stroke="#7E6785" stroke-width="7" fill="#A2B4B7"></path>
            <path d="M305.080217,366.431907 C312.105359,366.431907 311.440289,360.96626 311.440289,354.224042 C311.440289,347.481824 305.745286,342.016177 298.720145,342.016177 C291.695003,342.016177 286,341.377891 286,348.120109 C286,351.104283 300.047309,349.051302 301.900181,351.172075 C303.753052,353.292849 301.164474,366.431907 305.080217,366.431907 Z" id="Oval-3-Copy-7" stroke="#7E6785" fill="#7E6785" transform="translate(298.728572, 354.215953) rotate(-26.000000) translate(-298.728572, -354.215953) "></path>
            <path d="M368.351316,413.185988 C368.351316,408.76771 371.902393,404.728041 376.285757,404.181467 C376.285757,404.181467 407.439274,400 423.635204,400 C439.831133,400 480.40411,404.364253 480.40411,404.364253 C484.79323,404.818084 488.351316,408.7767 488.351316,413.185988 L488.351316,413.185988 C488.351316,417.604266 484.805782,420.720701 480.41508,420.162173 C480.41508,420.162173 445.722712,415.440789 428.280849,415.440789 C410.838987,415.440789 376.288783,420.158861 376.288783,420.158861 C371.905041,420.726128 368.351316,417.595276 368.351316,413.185988 L368.351316,413.185988 Z" id="Rectangle-3-Copy" fill="#96A6A9" transform="translate(428.351316, 410.113460) rotate(77.000000) translate(-428.351316, -410.113460) "></path>
            <path d="M102,413 C102,413 154.275986,381.504194 252,383 C349.724014,384.495806 391.012735,413.452085 457.338174,418.43896 C523.663613,423.425836 651,413 651,413 L651,433 C651,433 538.176348,445 457.338174,439 C376.5,433 331.431429,404.341225 252,403 C172.568571,401.658775 102,434 102,434 L102,413 Z" id="Rectangle-8-Copy-19" fill="url(#linearGradient-1)" transform="translate(376.500000, 411.814179) scale(-1, -1) translate(-376.500000, -411.814179) "></path>
            <path d="M314.618273,552.5 C314.618273,542.816479 308.771192,532 303.103438,532 C271.4903,532 238.605588,547.456699 252.118273,552.5 L314.618273,552.5 Z" id="Oval-2-Copy-16" stroke="#7E6785" stroke-width="7" fill="#D08E49"></path>
            <path d="M264.279662,415.447434 C264.380273,414.90766 264.689952,414.8539 264.975029,415.333547 L346.5,552.50098 L281.5,552.50098 C281.5,552.50098 265.592161,524.945624 261.343642,488.470087 C257.095123,451.99455 264.279662,415.447434 264.279662,415.447434 Z" id="Path-8-Copy-7" stroke="#7E6785" stroke-width="7" fill="#D9EFF2"></path>
            <path d="M339.876653,423.073259 L403.342592,523.912904 C403.637546,524.381549 403.925361,524.323267 403.982915,523.771939 C403.982915,523.771939 413.017484,447.488989 381.217123,404.761461" id="Path-9-Copy-4" stroke="#7E6785" stroke-width="7" stroke-linecap="round" transform="translate(372.522822, 464.495009) rotate(10.000000) translate(-372.522822, -464.495009) "></path>
            <rect id="Rectangle-3" fill="#96A6A9" x="352" y="533.376222" width="120" height="16" rx="8"></rect>
            <path d="M317,547.5 L284,547.5 C284,547.5 264,517 264,471 C284,521 317,547.5 317,547.5 Z" id="Path-8-Copy-3" fill="#CFDEE1"></path>
            <path d="M102,293 C102,293 154.275986,261.504194 252,263 C349.724014,264.495806 391.012735,293.452085 457.338174,298.43896 C523.663613,303.425836 651,293 651,293 L651,313 C651,313 538.176348,325 457.338174,319 C376.5,313 331.431429,284.341225 252,283 C172.568571,281.658775 102,314 102,314 L102,293 Z" id="Rectangle-8-Copy-19" fill="url(#linearGradient-1)" transform="translate(376.500000, 291.814179) scale(-1, -1) translate(-376.500000, -291.814179) "></path>
            <path d="M102,473 C102,473 154.275986,441.504194 252,443 C349.724014,444.495806 391.012735,473.452085 457.338174,478.43896 C523.663613,483.425836 651,473 651,473 L651,493 C651,493 538.176348,505 457.338174,499 C376.5,493 331.431429,464.341225 252,463 C172.568571,461.658775 102,494 102,494 L102,473 Z" id="Rectangle-8-Copy-19" fill="url(#linearGradient-1)"></path>
        </g>
    </g>
</svg>