<?xml version="1.0" encoding="UTF-8"?>
<svg width="768px" height="578px" viewBox="0 0 768 578" version="1.1" xmlns="http://www.w3.org/2000/svg" xmlns:xlink="http://www.w3.org/1999/xlink" style="background: #FFFFFF;">
    <!-- Generator: Sketch 43.2 (39069) - http://www.bohemiancoding.com/sketch -->
    <title>804</title>
    <desc>Created with Sketch.</desc>
    <defs></defs>
    <g id="Page-1" stroke="none" stroke-width="1" fill="none" fill-rule="evenodd">
        <g id="804">
            <path d="M262.445683,228.412002 L101.818022,228.412002 C72.4152285,209.106651 53,175.838967 53,138.036613 C53,78.3696393 101.369639,30 161.036613,30 C205.784518,30 244.178332,57.205094 260.580616,95.9778418 C271.251372,90.2115715 283.467104,86.9382151 296.447368,86.9382151 C338.173935,86.9382151 372,120.76428 372,162.490847 C372,191.178429 356.011266,216.131642 332.45884,228.925444 L262.445683,228.412002 Z" id="Combined-Shape" stroke="#B8A2BE" stroke-width="8" fill="#B8A2BE"></path>
            <path d="M625.445683,307.412002 L464.818022,307.412002 C435.415229,288.106651 416,254.838967 416,217.036613 C416,157.369639 464.369639,109 524.036613,109 C568.784518,109 607.178332,136.205094 623.580616,174.977842 C634.251372,169.211572 646.467104,165.938215 659.447368,165.938215 C701.173935,165.938215 735,199.76428 735,241.490847 C735,270.178429 719.011266,295.131642 695.45884,307.925444 L625.445683,307.412002 Z" id="Combined-Shape-Copy" stroke="#B8A2BE" stroke-width="8" fill="#B8A2BE"></path>
            <path d="M314.618273,566.5 C314.618273,556.816479 308.771192,546 303.103438,546 C271.4903,546 238.605588,561.456699 252.118273,566.5 L314.618273,566.5 Z" id="Oval-2-Copy-17" stroke="#7E6785" stroke-width="7" fill="#D08E49"></path>
            <path d="M287.93291,392.019165 C315.030658,407.64541 342.130724,412.114279 348.462602,402.000664 C354.794479,391.887049 337.960414,371.02077 310.862666,355.394525 C283.764917,339.76828 256.664851,335.299411 250.332974,345.413026 C244.001097,355.526641 260.835162,376.39292 287.93291,392.019165 Z" id="Oval-2-Copy-15" stroke="#7E6785" stroke-width="7" fill="#D08E49" transform="translate(299.397788, 373.706845) rotate(-21.000000) translate(-299.397788, -373.706845) "></path>
            <path d="M429.570867,567 L280.5,567 C265.669557,540.119824 271.77218,515.5731 267.09568,477.486071 C255.624032,384.056992 286.826878,303.344684 336.789188,297.210083 C386.751497,291.075483 436.55356,361.84164 448.025208,455.270718 C450.294123,473.749543 451.33459,493.905614 450.898807,513.125491 L513.243271,566.35392 C513.659709,566.709466 513.552507,567 513.000497,567 L429.570867,567 Z" id="Combined-Shape-Copy-7" stroke="#7E6785" stroke-width="7" fill="#A2B4B7"></path>
            <path d="M305.080217,380.431907 C312.105359,380.431907 311.440289,374.96626 311.440289,368.224042 C311.440289,361.481824 305.745286,356.016177 298.720145,356.016177 C291.695003,356.016177 286,355.377891 286,362.120109 C286,365.104283 300.047309,363.051302 301.900181,365.172075 C303.753052,367.292849 301.164474,380.431907 305.080217,380.431907 Z" id="Oval-3-Copy-7" stroke="#7E6785" fill="#7E6785" transform="translate(298.728572, 368.215953) rotate(-26.000000) translate(-298.728572, -368.215953) "></path>
            <path d="M368.351316,427.185988 C368.351316,422.76771 371.902393,418.728041 376.285757,418.181467 C376.285757,418.181467 407.439274,414 423.635204,414 C439.831133,414 480.40411,418.364253 480.40411,418.364253 C484.79323,418.818084 488.351316,422.7767 488.351316,427.185988 L488.351316,427.185988 C488.351316,431.604266 484.805782,434.720701 480.41508,434.162173 C480.41508,434.162173 445.722712,429.440789 428.280849,429.440789 C410.838987,429.440789 376.288783,434.158861 376.288783,434.158861 C371.905041,434.726128 368.351316,431.595276 368.351316,427.185988 L368.351316,427.185988 Z" id="Rectangle-3-Copy" fill="#96A6A9" transform="translate(428.351316, 424.113460) rotate(77.000000) translate(-428.351316, -424.113460) "></path>
            <path d="M264.279662,429.447434 C264.380273,428.90766 264.689952,428.8539 264.975029,429.333547 L346.5,566.50098 L281.5,566.50098 C281.5,566.50098 265.592161,538.945624 261.343642,502.470087 C257.095123,465.99455 264.279662,429.447434 264.279662,429.447434 Z" id="Path-8-Copy-7" stroke="#7E6785" stroke-width="7" fill="#D9EFF2"></path>
            <path d="M339.876653,437.073259 L403.342592,537.912904 C403.637546,538.381549 403.925361,538.323267 403.982915,537.771939 C403.982915,537.771939 413.017484,461.488989 381.217123,418.761461" id="Path-9-Copy-4" stroke="#7E6785" stroke-width="7" stroke-linecap="round" transform="translate(372.522822, 478.495009) rotate(10.000000) translate(-372.522822, -478.495009) "></path>
            <path d="M317.5,563.5 L284.5,563.5 C284.5,563.5 265.5,541 267,491 C282,541 317.5,563.5 317.5,563.5 Z" id="Path-8-Copy-3" fill="#A0B3B7"></path>
        </g>
    </g>
</svg>