<?xml version="1.0" encoding="UTF-8"?>
<svg width="768px" height="578px" viewBox="0 0 768 578" version="1.1" xmlns="http://www.w3.org/2000/svg" xmlns:xlink="http://www.w3.org/1999/xlink" style="background: #FFFFFF;">
    <!-- Generator: Sketch 43.2 (39069) - http://www.bohemiancoding.com/sketch -->
    <title>900</title>
    <desc>Created with Sketch.</desc>
    <defs></defs>
    <g id="Page-1" stroke="none" stroke-width="1" fill="none" fill-rule="evenodd">
        <g id="900">
            <path d="M119.5,270.5 L344.5,270.5" id="Line" stroke="#B8A2BE" stroke-width="7" stroke-linecap="round"></path>
            <path d="M440.5,391.5 L665.5,391.5" id="Line-Copy-4" stroke="#B8A2BE" stroke-width="7" stroke-linecap="round"></path>
            <path d="M179.5,247.5 L217.513156,247.5" id="Line-Copy-5" stroke="#B8A2BE" stroke-width="7" stroke-linecap="round"></path>
            <path d="M625.5,372.5 L663.513156,372.5" id="Line-Copy-8" stroke="#B8A2BE" stroke-width="7" stroke-linecap="round"></path>
            <path d="M338,271 C360.09139,271 378,253.09139 378,231 C378,208.90861 360.09139,191 338,191" id="Oval" stroke="#B8A2BE" stroke-width="7" stroke-linecap="round"></path>
            <path d="M658,391 C680.09139,391 698,373.09139 698,351 C698,328.90861 680.09139,311 658,311" id="Oval-Copy" stroke="#B8A2BE" stroke-width="7" stroke-linecap="round"></path>
            <path d="M225,271 C238.807119,271 250,259.807119 250,246 C250,232.192881 238.807119,221 225,221" id="Oval-Copy-2" stroke="#B8A2BE" stroke-width="7" stroke-linecap="round"></path>
            <path d="M272.656241,384.075049 C299.753989,399.701294 326.854055,404.170163 333.185932,394.056548 C339.517809,383.942933 322.683744,363.076654 295.585996,347.450409 C268.488248,331.824164 241.388182,327.355295 235.056305,337.46891 C228.724427,347.582525 245.558492,368.448804 272.656241,384.075049 Z" id="Oval-2-Copy-3" stroke="#7E6785" stroke-width="7" fill="#D08E49" transform="translate(284.787605, 365.762729) rotate(-50.000000) translate(-284.787605, -365.762729) "></path>
            <path d="M334.112623,394.023348 C340.4445,383.909733 323.610435,363.043454 296.512687,347.417209 C269.414938,331.790964 242.314873,327.322095 235.982995,337.43571 C235.982995,337.43571 245.482236,338.686232 248.515266,340.435266 C251.548297,342.184299 334.112623,394.023348 334.112623,394.023348 Z" id="Oval-2-Copy-5" fill="#D89E60" transform="translate(285.714296, 363.023016) rotate(-50.000000) translate(-285.714296, -363.023016) "></path>
            <path d="M472.932451,566.13976 L334.300065,566.13976 C322.720819,538.083889 273.26966,498.480481 259.860379,423.51476 C246.451098,348.549039 250.420693,302.01476 292.360379,284.01476 C334.300065,266.01476 438.360379,329.01476 478.802475,462.372906 C482.19137,473.547818 484.578011,485.311791 485.889326,497.057087 L564.832423,565.48892 C565.245604,565.847086 565.132025,566.13976 564.575431,566.13976 L472.932451,566.13976 Z" id="Combined-Shape-Copy" stroke="#7E6785" stroke-width="7" fill="#AFE0B7"></path>
            <path d="M67.5,429.5 L292.5,429.5" id="Line-Copy-3" stroke="#B8A2BE" stroke-width="7" stroke-linecap="round"></path>
            <path d="M388.316156,423.555228 C388.316156,419.13695 391.867233,415.097282 396.250597,414.550707 C396.250597,414.550707 427.404114,410.369241 443.600044,410.369241 C452.415534,410.369241 468.798712,411.343317 481.73129,412.739455 C494.663868,414.135592 500.930512,415.261458 500.930512,415.261458 C505.291119,415.944025 508.704596,420.08496 508.555446,424.489238 L508.586801,423.563346 C508.437328,427.977141 504.770623,431.089941 500.37992,430.531414 C500.37992,430.531414 465.687552,425.81003 448.24569,425.81003 C430.803827,425.81003 396.253623,430.528102 396.253623,430.528102 C391.869881,431.095368 388.316156,427.964516 388.316156,423.555228 L388.316156,423.555228 Z" id="Rectangle-3-Copy" fill="#9AC8A2" transform="translate(448.451478, 420.482733) rotate(64.000000) translate(-448.451478, -420.482733) "></path>
            <path d="M409.228528,433.65337 C388.850983,441.223023 357.272652,444.237516 357.272652,444.237516 C356.721729,444.293659 356.704045,444.497952 357.210048,444.677925 C357.210048,444.677925 380.416112,453.647194 401.20987,447.820273 C422.003628,441.993351 447.960023,417.299826 432.460517,396.474416 C432.460517,396.474416 429.606073,426.083718 409.228528,433.65337 Z" id="Path-9-Copy-2" fill="#9AC8A1" transform="translate(397.008623, 423.131275) scale(1, -1) rotate(283.000000) translate(-397.008623, -423.131275) "></path>
            <path d="M265.216922,400.948025 C265.216922,400.948025 386.058295,428.415722 421.038693,376.532295 C456.01909,324.648868 567.174313,398.177113 567.174313,398.177113 C567.630327,398.473454 567.606934,398.944389 567.134827,399.221486 L533.865173,418.748636 C533.387351,419.029087 532.68884,418.926448 532.308997,418.531352 C532.308997,418.531352 520.891967,406.154972 506.5,398.713685 C492.108033,391.272398 453.390603,379.349434 449.659018,388.74016 C427.749089,445.414183 280.249089,451.086076 258.249089,422.914183 C236.249089,394.742291 265.216922,400.948025 265.216922,400.948025 Z" id="Path-10-Copy" stroke="#7E6785" stroke-width="7" fill="#E87070"></path>
            <path d="M412.089272,248.484683 L413.485434,404.198969 C413.485434,404.198969 412.089272,427.056112 427.447056,427.056112 C433.322534,427.056112 436.950211,423.553871 439.190036,419.229116" id="Path-3" stroke="#7E6785" stroke-width="7" stroke-linecap="round" transform="translate(425.639654, 337.770398) rotate(46.000000) translate(-425.639654, -337.770398) "></path>
            <path d="M350.284778,202.686287 C349.175673,202.686287 348.473002,203.565955 348.730704,204.629481 C348.730704,204.629481 370.527369,311.969392 488.703858,311.969392 C606.880348,311.969392 629.654375,204.606224 629.654375,204.606224 C629.911574,203.545872 629.221762,202.686287 628.111862,202.686287 L350.284778,202.686287 Z" id="Line" stroke="#7E6785" stroke-width="7" fill="#EADA91" stroke-linecap="square" transform="translate(489.198320, 257.327839) rotate(46.000000) translate(-489.198320, -257.327839) "></path>
            <g id="Group" transform="translate(493.236263, 256.559688) rotate(226.000000) translate(-493.236263, -256.559688) translate(334.236263, 197.559688)">
                <path d="M2.00787829,0 C0.898957732,0 0.204896121,0.875557872 0.473249997,1.9354903 C0.473249997,1.9354903 25.0796963,117.142407 158.28075,117.142407 C291.481804,117.142407 317.187747,1.92343294 317.187747,1.92343294 C317.457487,0.86115026 316.778886,0 315.668275,0 L2.00787829,0 Z" id="Line-Copy-2" stroke="#7E6785" stroke-width="7" fill="#DED196" stroke-linecap="square" transform="translate(158.838077, 58.571203) scale(1, -1) translate(-158.838077, -58.571203) "></path>
                <path d="M78.1605836,3.5 C77.0526949,3.5 76.3475596,4.3819872 76.5911377,5.44831686 C76.5911377,5.44831686 99.0368651,113.071203 159.018433,113.071203 C219,113.071203 241.443824,5.44831686 241.443824,5.44831686 C241.684913,4.37229117 240.988704,3.5 239.874344,3.5 L78.1605836,3.5 Z" id="Line-Copy-3" fill="#EADA91" transform="translate(159.017256, 58.285602) scale(1, -1) translate(-159.017256, -58.285602) "></path>
            </g>
            <path d="M60.5,442.5 L98.5131556,442.5" id="Line-Copy-6" stroke="#B8A2BE" stroke-width="7" stroke-linecap="round"></path>
            <path d="M499.5,488.5 L537.513156,488.5" id="Line-Copy-9" stroke="#B8A2BE" stroke-width="7" stroke-linecap="round"></path>
            <path d="M112,480 C125.807119,480 137,468.807119 137,455 C137,441.192881 125.807119,430 112,430" id="Oval-Copy-4" stroke="#B8A2BE" stroke-width="7" stroke-linecap="round"></path>
            <path d="M551,526 C564.807119,526 576,514.807119 576,501 C576,487.192881 564.807119,476 551,476" id="Oval-Copy-5" stroke="#B8A2BE" stroke-width="7" stroke-linecap="round"></path>
            <path d="M506.5,475.5 L731.5,475.5" id="Line-Copy-10" stroke="#B8A2BE" stroke-width="7" stroke-linecap="round"></path>
            <path d="M364.960795,566.363764 C364.960795,556.680243 360.65292,545 354.985166,545 C323.372027,545 284.231831,561.320463 297.744515,566.363764 L364.960795,566.363764 Z" id="Oval-2-Copy-4" stroke="#7E6785" stroke-width="7" fill="#D08E49"></path>
            <rect id="Rectangle-3" fill="#9AC8A2" x="413" y="546" width="120" height="16.5" rx="8"></rect>
            <path d="M261.907043,427.506148 C261.945087,426.964338 262.30372,426.838428 262.704441,427.221518 C262.704441,427.221518 312.919307,475.209424 336.975927,498.761361 C356.154703,517.537785 387.973172,549.445285 400.088016,561.612776 C403.169252,564.707402 404.975927,566.525114 404.975927,566.525114 L334.975927,566.525114 C256.5,465 261.907043,427.506148 261.907043,427.506148 Z" id="Path-8-Copy" stroke="#7E6785" stroke-width="7" fill="#D9EFF2"></path>
            <path d="M285,483 C285,475.5 314.811495,516.055479 333,530 C348,541.5 397,562.923469 397,562.923469 L337.5,562.923469 C285.707182,495.918568 285,483 285,483 Z" id="Path-8-Copy-2" fill="#BDE3E8"></path>
            <path d="M383,422.914183 C430.70079,412.770052 414.233399,421.306684 383,429 C332.895333,441.341629 275,436 262,422.914183 C259.419959,419.610337 257.796452,416.830376 256.178053,414.509719 C248.5,403.5 335.29921,433.058315 383,422.914183 Z" id="Path-10-Copy-3" fill="#D97A7A"></path>
            <path d="M546.629813,406.014426 C547.110404,406.282601 547.125534,406.727354 546.645312,407.018918 L533.5,415 C533.5,415 520.891967,402.441287 506.5,395 C499.582729,391.423463 480,384.5 469.5,383 C469.5,383 498.073951,384.951435 505.5,387 C520,391 546.629813,406.014426 546.629813,406.014426 Z" id="Path-10-Copy-2" fill="#DA7A7A"></path>
            <path d="M435.195109,398.596923 C422.216099,402.425708 403.195737,402.268363 394.233657,403.435251 L392.36011,406.433554 C400.924701,408.597805 419.190983,412.196392 432.516694,408.4622 L435.195109,398.596923 Z" id="Path-9-Copy-3" fill="#747474" opacity="0.338654891" transform="translate(413.777609, 404.339607) scale(1, -1) rotate(283.000000) translate(-413.777609, -404.339607) "></path>
            <path d="M382.556825,402.447117 L337.215269,434.052604 C336.761939,434.368599 336.800759,434.808126 337.305054,435.027869 C337.305054,435.027869 365.30181,448.141807 391.322866,440.417012 C417.343922,432.692217 439.396801,404.96073 423.897295,384.13532" id="Path-9-Copy" stroke="#7E6785" stroke-width="7" fill="#AFE0B7" stroke-linecap="round" transform="translate(382.970222, 413.494339) scale(1, -1) rotate(283.000000) translate(-382.970222, -413.494339) "></path>
            <path d="M276.100227,354.822917 C283.339157,354.434494 287.236853,359.37352 288.93162,355.380899 C289.620009,348.284136 286.884617,346.697376 277.270827,346.697376 C267.657038,346.697376 258.998908,353.243184 259.51604,356.123897 C260.033173,359.004609 268.861296,355.21134 276.100227,354.822917 Z" id="Oval-4" fill="#7E6785" transform="translate(276.970619, 352.772401) rotate(-23.000000) translate(-276.970619, -352.772401) "></path>
        </g>
    </g>
</svg>