<?xml version="1.0" encoding="UTF-8"?>
<svg width="768px" height="578px" viewBox="0 0 768 578" version="1.1" xmlns="http://www.w3.org/2000/svg" xmlns:xlink="http://www.w3.org/1999/xlink" style="background: #FFFFFF;">
    <!-- Generator: Sketch 43.2 (39069) - http://www.bohemiancoding.com/sketch -->
    <title>Artboard Copy 8</title>
    <desc>Created with Sketch.</desc>
    <defs></defs>
    <g id="Page-1" stroke="none" stroke-width="1" fill="none" fill-rule="evenodd">
        <g id="Artboard-Copy-8">
            <path d="M413.445683,268.412002 L252.818022,268.412002 C223.415229,249.106651 204,215.838967 204,178.036613 C204,118.369639 252.369639,70 312.036613,70 C356.784518,70 395.178332,97.205094 411.580616,135.977842 C422.251372,130.211572 434.467104,126.938215 447.447368,126.938215 C489.173935,126.938215 523,160.76428 523,202.490847 C523,231.178429 507.011266,256.131642 483.45884,268.925444 L413.445683,268.412002 Z" id="Combined-Shape" stroke="#B8A2BE" stroke-width="8" fill="#B8A2BE"></path>
            <path d="M334.618273,566.5 C334.618273,556.816479 328.771192,546 323.103438,546 C291.4903,546 258.605588,561.456699 272.118273,566.5 L334.618273,566.5 Z" id="Oval-2-Copy-17" stroke="#7E6785" stroke-width="7" fill="#D08E49"></path>
            <path d="M307.93291,392.019165 C335.030658,407.64541 362.130724,412.114279 368.462602,402.000664 C374.794479,391.887049 357.960414,371.02077 330.862666,355.394525 C303.764917,339.76828 276.664851,335.299411 270.332974,345.413026 C264.001097,355.526641 280.835162,376.39292 307.93291,392.019165 Z" id="Oval-2-Copy-15" stroke="#7E6785" stroke-width="7" fill="#D08E49" transform="translate(319.397788, 373.706845) rotate(-21.000000) translate(-319.397788, -373.706845) "></path>
            <path d="M449.570867,567 L300.5,567 C285.669557,540.119824 291.77218,515.5731 287.09568,477.486071 C275.624032,384.056992 306.826878,303.344684 356.789188,297.210083 C406.751497,291.075483 456.55356,361.84164 468.025208,455.270718 C470.294123,473.749543 471.33459,493.905614 470.898807,513.125491 L533.243271,566.35392 C533.659709,566.709466 533.552507,567 533.000497,567 L449.570867,567 Z" id="Combined-Shape-Copy-7" stroke="#7E6785" stroke-width="7" fill="#A2B4B7"></path>
            <path d="M325.080217,380.431907 C332.105359,380.431907 331.440289,374.96626 331.440289,368.224042 C331.440289,361.481824 325.745286,356.016177 318.720145,356.016177 C311.695003,356.016177 306,355.377891 306,362.120109 C306,365.104283 320.047309,363.051302 321.900181,365.172075 C323.753052,367.292849 321.164474,380.431907 325.080217,380.431907 Z" id="Oval-3-Copy-7" stroke="#7E6785" fill="#7E6785" transform="translate(318.728572, 368.215953) rotate(-26.000000) translate(-318.728572, -368.215953) "></path>
            <path d="M388.351316,427.185988 C388.351316,422.76771 391.902393,418.728041 396.285757,418.181467 C396.285757,418.181467 427.439274,414 443.635204,414 C459.831133,414 500.40411,418.364253 500.40411,418.364253 C504.79323,418.818084 508.351316,422.7767 508.351316,427.185988 L508.351316,427.185988 C508.351316,431.604266 504.805782,434.720701 500.41508,434.162173 C500.41508,434.162173 465.722712,429.440789 448.280849,429.440789 C430.838987,429.440789 396.288783,434.158861 396.288783,434.158861 C391.905041,434.726128 388.351316,431.595276 388.351316,427.185988 L388.351316,427.185988 Z" id="Rectangle-3-Copy" fill="#96A6A9" transform="translate(448.351316, 424.113460) rotate(77.000000) translate(-448.351316, -424.113460) "></path>
            <path d="M284.279662,429.447434 C284.380273,428.90766 284.689952,428.8539 284.975029,429.333547 L366.5,566.50098 L301.5,566.50098 C301.5,566.50098 285.592161,538.945624 281.343642,502.470087 C277.095123,465.99455 284.279662,429.447434 284.279662,429.447434 Z" id="Path-8-Copy-7" stroke="#7E6785" stroke-width="7" fill="#D9EFF2"></path>
            <path d="M359.876653,437.073259 L423.342592,537.912904 C423.637546,538.381549 423.925361,538.323267 423.982915,537.771939 C423.982915,537.771939 433.017484,461.488989 401.217123,418.761461" id="Path-9-Copy-4" stroke="#7E6785" stroke-width="7" stroke-linecap="round" transform="translate(392.522822, 478.495009) rotate(10.000000) translate(-392.522822, -478.495009) "></path>
            <path d="M336.5,562.5 L303.5,562.5 C303.5,562.5 284.5,540 286,490 C301,540 336.5,562.5 336.5,562.5 Z" id="Path-8-Copy-3" fill="#A0B3B7"></path>
        </g>
    </g>
</svg>