<?xml version="1.0" encoding="UTF-8"?>
<svg width="768px" height="578px" viewBox="0 0 768 578" version="1.1" xmlns="http://www.w3.org/2000/svg" xmlns:xlink="http://www.w3.org/1999/xlink" style="background: #FFFFFF;">
    <!-- Generator: Sketch 42 (36781) - http://www.bohemiancoding.com/sketch -->
    <title>Artboard Copy 2</title>
    <desc>Created with Sketch.</desc>
    <defs></defs>
    <g id="Page-1" stroke="none" stroke-width="1" fill="none" fill-rule="evenodd">
        <g id="Artboard-Copy-2">
            <path d="M334.285602,385.603682 C361.38335,401.229927 388.483416,405.698797 394.815293,395.585182 C401.14717,385.471567 384.313105,364.605287 357.215357,348.979042 C330.117609,333.352798 303.017543,328.883928 296.685666,338.997543 C290.353788,349.111158 307.187853,369.977437 334.285602,385.603682 Z" id="Oval-2-Copy-15" stroke="#7E6785" stroke-width="7" fill="#D08E49" transform="translate(345.750479, 367.291362) rotate(-24.000000) translate(-345.750479, -367.291362) "></path>
            <path d="M444.459792,571.618908 L451.502409,571.625 C451.504443,571.619999 451.506476,571.614997 451.508509,571.609995 L537.505527,571.501257 C538.054759,571.500563 538.161421,571.207754 537.747079,570.850112 L467.985691,510.635187 C470.180092,496.647234 471.442095,482.167147 471.442095,467.858146 C471.442095,375.152652 430.153326,300 379.221048,300 C328.288769,300 287,375.152652 287,467.858146 C287,505.650202 295.420754,543.444129 307,571.5 L439.641734,571.61474 L439.641734,571.625 L444.459792,571.618908 Z" id="Combined-Shape-Copy-7" stroke="#7E6785" stroke-width="7" fill="#EFD2FD"></path>
            <path d="M394.375014,428.915922 C394.375014,424.497644 397.926091,420.457975 402.309455,419.911401 C402.309455,419.911401 433.462972,415.729934 449.658902,415.729934 C465.854832,415.729934 506.427808,420.094187 506.427808,420.094187 C510.816929,420.548019 514.375014,424.506634 514.375014,428.915922 L514.375014,428.915922 C514.375014,433.3342 510.829481,436.450635 506.438778,435.892108 C506.438778,435.892108 471.74641,431.170724 454.304548,431.170724 C436.862685,431.170724 402.312482,435.888796 402.312482,435.888796 C397.928739,436.456062 394.375014,433.32521 394.375014,428.915922 L394.375014,428.915922 Z" id="Rectangle-3-Copy" fill="#E1C2E0" transform="translate(454.375014, 425.843394) rotate(81.000000) translate(-454.375014, -425.843394) "></path>
            <path d="M344.458474,366.870841 C350.806574,369.62089 350.818546,361.405193 350.818546,354.662975 C350.818546,347.920758 345.123543,342.45511 338.098401,342.45511 C331.07326,342.45511 322.946092,342.262306 325.378257,348.559043 C327.210574,353.302807 335.020939,346.275737 340.465482,352.764291 C345.910025,359.252845 340.374468,365.101616 344.458474,366.870841 Z" id="Oval-3-Copy-7" stroke="#7E6785" fill="#7E6785" transform="translate(337.878440, 354.935076) scale(1, -1) rotate(-50.000000) translate(-337.878440, -354.935076) "></path>
            <path d="M361.180331,243 L361.180331,431.269781 C361.180331,431.269781 359.132353,447.426649 368.839695,452.011677" id="Path-3-Copy" stroke="#7E6785" stroke-width="7" stroke-linecap="round"></path>
            <path d="M443.666667,13.7649526 L443.666667,223.361972" id="Line-Copy-9" stroke="#B8A2BE" stroke-width="7" stroke-linecap="round"></path>
            <path d="M257.666667,13.7649526 L257.666667,223.361972" id="Line-Copy-16" stroke="#B8A2BE" stroke-width="7" stroke-linecap="round"></path>
            <path d="M505,13 L505,253.735047" id="Line-Copy-11" stroke="#B8A2BE" stroke-width="7" stroke-linecap="round"></path>
            <path d="M318.666667,13.7649526 L318.666667,223.361972" id="Line-Copy-18" stroke="#B8A2BE" stroke-width="7" stroke-linecap="round"></path>
            <path d="M108,112 L108,318.861972" id="Line-Copy-21" stroke="#B8A2BE" stroke-width="7" stroke-linecap="round"></path>
            <path d="M169,343 L169,549.861972" id="Line-Copy-22" stroke="#B8A2BE" stroke-width="7" stroke-linecap="round"></path>
            <path d="M297,118 L297,147.5" id="Line-Copy-27" stroke="#B8A2BE" stroke-width="7" stroke-linecap="round"></path>
            <path d="M235,171 L235,200.5" id="Line-Copy-28" stroke="#B8A2BE" stroke-width="7" stroke-linecap="round"></path>
            <path d="M354,105 L354,134.5" id="Line-Copy-29" stroke="#B8A2BE" stroke-width="7" stroke-linecap="round"></path>
            <path d="M410,117 L410,146.5" id="Line-Copy-30" stroke="#B8A2BE" stroke-width="7" stroke-linecap="round"></path>
            <path d="M481,156 L481,185.5" id="Line-Copy-31" stroke="#B8A2BE" stroke-width="7" stroke-linecap="round"></path>
            <path d="M515,214 L515,243.5" id="Line-Copy-32" stroke="#B8A2BE" stroke-width="7" stroke-linecap="round"></path>
            <path d="M412,14 L412,59" id="Line-Copy-24" stroke="#B8A2BE" stroke-width="7" stroke-linecap="round"></path>
            <path d="M601,216 L601,422.861972" id="Line-Copy-25" stroke="#B8A2BE" stroke-width="7" stroke-linecap="round"></path>
            <path d="M385.666667,13.7649526 L385.666667,223.361972" id="Line-Copy-20" stroke="#B8A2BE" stroke-width="7" stroke-linecap="round"></path>
            <path d="M206,14 L206,254.68121" id="Line-Copy-19" stroke="#B8A2BE" stroke-width="7" stroke-linecap="round"></path>
            <path d="M203.007878,138 C201.898958,138 201.204896,138.875558 201.47325,139.93549 C201.47325,139.93549 226.079696,255.142407 359.28075,255.142407 C492.481804,255.142407 518.187747,139.923433 518.187747,139.923433 C518.457487,138.86115 517.778886,138 516.668275,138 L203.007878,138 Z" id="Line-Copy-2" stroke="#7E6785" stroke-width="7" stroke-linecap="square" fill="#DED196" transform="translate(359.838077, 196.571203) scale(1, -1) translate(-359.838077, -196.571203) "></path>
            <path d="M279.617573,141 C278.509685,141 277.804549,141.881987 278.048127,142.948317 C278.048127,142.948317 300.493855,250.571203 360.475422,250.571203 C420.45699,250.571203 442.900814,142.948317 442.900814,142.948317 C443.141902,141.872291 442.445693,141 441.331333,141 L279.617573,141 Z" id="Line-Copy-3" fill="#EADA91" transform="translate(360.474245, 195.785602) scale(1, -1) translate(-360.474245, -195.785602) "></path>
            <path d="M625.666667,14.8187903 L625.666667,513.167331" id="Line-Copy-10" stroke="#B8A2BE" stroke-width="7" stroke-linecap="round"></path>
            <path d="M136.666667,14.8187903 L136.666667,513.167331" id="Line-Copy-17" stroke="#B8A2BE" stroke-width="7" stroke-linecap="round"></path>
            <path d="M686.666667,14.8187903 L686.666667,513.167331" id="Line-Copy-13" stroke="#B8A2BE" stroke-width="7" stroke-linecap="round"></path>
            <path d="M571.666667,14.8187903 L571.666667,513.167331" id="Line-Copy-12" stroke="#B8A2BE" stroke-width="7" stroke-linecap="round"></path>
            <path d="M75.6666667,14.8187903 L75.6666667,513.167331" id="Line-Copy-15" stroke="#B8A2BE" stroke-width="7" stroke-linecap="round"></path>
            <path d="M284.875,120.625 C289.155207,120.625 292.625,117.155207 292.625,112.875 C292.625,108.594793 289.155207,105.125 284.875,105.125" id="Oval" stroke="#B8A2BE" stroke-width="7" transform="translate(288.750000, 112.875000) rotate(-90.000000) translate(-288.750000, -112.875000) "></path>
            <path d="M222.875,174.625 C227.155207,174.625 230.625,171.155207 230.625,166.875 C230.625,162.594793 227.155207,159.125 222.875,159.125" id="Oval-Copy" stroke="#B8A2BE" stroke-width="7" transform="translate(226.750000, 166.875000) rotate(-90.000000) translate(-226.750000, -166.875000) "></path>
            <path d="M413.875,119.625 C418.155207,119.625 421.625,116.155207 421.625,111.875 C421.625,107.594793 418.155207,104.125 413.875,104.125" id="Oval-Copy-3" stroke="#B8A2BE" stroke-width="7" transform="translate(417.750000, 111.875000) rotate(-90.000000) translate(-417.750000, -111.875000) "></path>
            <path d="M341.875,107.625 C346.155207,107.625 349.625,104.155207 349.625,99.875 C349.625,95.5947932 346.155207,92.125 341.875,92.125" id="Oval-Copy-2" stroke="#B8A2BE" stroke-width="7" transform="translate(345.750000, 99.875000) rotate(-90.000000) translate(-345.750000, -99.875000) "></path>
            <path d="M357.875,127.625 C362.155207,127.625 365.625,124.155207 365.625,119.875 C365.625,115.594793 362.155207,112.125 357.875,112.125" id="Oval-Copy-7" stroke="#B8A2BE" stroke-width="7" transform="translate(361.750000, 119.875000) rotate(-90.000000) translate(-361.750000, -119.875000) "></path>
            <path d="M485.875,179.625 C490.155207,179.625 493.625,176.155207 493.625,171.875 C493.625,167.594793 490.155207,164.125 485.875,164.125" id="Oval-Copy-8" stroke="#B8A2BE" stroke-width="7" transform="translate(489.750000, 171.875000) rotate(-90.000000) translate(-489.750000, -171.875000) "></path>
            <path d="M468.875,158.625 C473.155207,158.625 476.625,155.155207 476.625,150.875 C476.625,146.594793 473.155207,143.125 468.875,143.125" id="Oval-Copy-4" stroke="#B8A2BE" stroke-width="7" transform="translate(472.750000, 150.875000) rotate(-90.000000) translate(-472.750000, -150.875000) "></path>
            <path d="M518.875,217.625 C523.155207,217.625 526.625,214.155207 526.625,209.875 C526.625,205.594793 523.155207,202.125 518.875,202.125" id="Oval-Copy-5" stroke="#B8A2BE" stroke-width="7" transform="translate(522.750000, 209.875000) rotate(-90.000000) translate(-522.750000, -209.875000) "></path>
            <path d="M194.875,227.625 C199.155207,227.625 202.625,224.155207 202.625,219.875 C202.625,215.594793 199.155207,212.125 194.875,212.125" id="Oval-Copy-6" stroke="#B8A2BE" stroke-width="7" transform="translate(198.750000, 219.875000) rotate(-90.000000) translate(-198.750000, -219.875000) "></path>
            <path d="M339.157007,572 C339.157007,562.316479 332.4282,551 326.760445,551 C295.147307,551 269.144323,566.956699 282.657007,572 L339.157007,572 Z" id="Oval-2-Copy-16" stroke="#7E6785" stroke-width="7" fill="#D08E49"></path>
            <path d="M289.276534,434.445135 C289.379136,433.908572 289.696789,433.84545 289.995562,434.319263 L376.500478,571.504494 L306.500478,571.504494 C306.500478,571.504494 290.592639,542.949138 286.34412,506.473601 C282.095601,469.998064 289.276534,434.445135 289.276534,434.445135 Z" id="Path-8-Copy-7" stroke="#7E6785" stroke-width="7" fill="#D9EFF2"></path>
            <path d="M289.007626,500.460791 C288.957733,499.909977 289.157739,499.84216 289.459021,500.315866 C289.459021,500.315866 308.907734,531.002805 316.464737,540.463453 C324.021741,549.924101 343.929475,568.333465 343.929475,568.333465 L307.973013,568.333465 C307.973013,568.333465 297.559117,544.056196 293.917287,529.963453 C290.275457,515.87071 289.007626,500.460791 289.007626,500.460791 Z" id="Path-8-Copy-8" fill="#CFDFE1"></path>
            <path d="M428.910351,418 C416.310689,421.123504 408.035942,457.559196 408.035942,457.559196 C405.834279,465.534632 397.667509,474.086606 389.89561,476.962366 C389.89561,476.962366 363.922622,484 369.890883,493 C373.206584,496 414.984409,503.5 428.910351,484 C452.120254,450.5 428.910351,418 428.910351,418 Z" id="Path-9-Copy-8" fill="#E0C2E0"></path>
            <path d="M380.179577,416.311798 L380.179577,437.99812 C380.179577,446.28343 373.461564,453 365.178422,453 L352.677196,453 C352.126226,453 351.855678,453.418631 352.077656,453.918977 C352.077656,453.918977 368.617374,495.625 410.679577,479.5 C432.814456,471.014355 438.033742,420.188093 421.520047,398" id="Path-9-Copy-7" stroke="#7E6785" stroke-width="7" stroke-linecap="round" fill="#EFD2FD"></path>
            <path d="M654,489 L654,563.861972" id="Line-Copy-23" stroke="#B8A2BE" stroke-width="7" stroke-linecap="round"></path>
        </g>
    </g>
</svg>