<?xml version="1.0" encoding="UTF-8"?>
<svg width="768px" height="578px" viewBox="0 0 768 578" version="1.1" xmlns="http://www.w3.org/2000/svg" xmlns:xlink="http://www.w3.org/1999/xlink">
    <!-- Generator: Sketch 42 (36781) - http://www.bohemiancoding.com/sketch -->
    <title>Artboard</title>
    <desc>Created with Sketch.</desc>
    <defs></defs>
    <g id="Page-1" stroke="none" stroke-width="1" fill="none" fill-rule="evenodd">
        <g id="Artboard">
            <path d="M277.664964,393.65589 C304.762712,409.282135 331.862778,413.751004 338.194655,403.637389 C344.526532,393.523774 327.692467,372.657495 300.594719,357.03125 C273.496971,341.405005 246.396905,336.936136 240.065028,347.049751 C233.733151,357.163366 250.567215,378.029645 277.664964,393.65589 Z" id="Oval-2-Copy-15" stroke="#7E6785" stroke-width="7" fill="#D08E49" transform="translate(289.129841, 375.343570) rotate(-21.000000) translate(-289.129841, -375.343570) "></path>
            <path d="M419.849643,567.975032 L270.778776,567.975032 C255.948333,541.094856 262.050955,516.548132 257.374456,478.461102 C245.902808,385.032024 277.105654,304.319715 327.067963,298.185115 C377.030273,292.050515 426.832336,362.816671 438.303984,456.24575 C440.572898,474.724574 441.613366,494.880646 441.177582,514.100523 L503.522047,567.328952 C503.938484,567.684498 503.831283,567.975032 503.279273,567.975032 L419.849643,567.975032 Z" id="Combined-Shape-Copy-7" stroke="#7E6785" stroke-width="7" fill="#A2B4B7"></path>
            <path d="M339,431.814567 C371.5848,431.814567 393,406.294798 393,374.814567 C393,343.334336 365.5848,316.814567 333,316.814567 C300.4152,316.814567 280,343.334336 280,374.814567 C280,406.294798 306.4152,431.814567 339,431.814567 Z" id="Oval" stroke="#FFF5F5" fill="#FFFDFD"></path>
            <path d="M338.858506,431.403368 C371.443306,431.403368 392.858506,405.883599 392.858506,374.403368 C392.858506,342.923137 351.358506,380.403368 351.358506,380.403368 C351.358506,380.403368 315.606693,431.403368 338.858506,431.403368 Z" id="Oval-Copy" fill="#E6E1E1"></path>
            <path d="M291.227613,384.786192 C295.143356,384.786192 301.889991,376.869715 301.889991,370.127497 C301.889991,363.38528 296.194988,357.919632 289.169847,357.919632 C282.144705,357.919632 280.177524,359.53762 276.449702,364.023565 C272.72188,368.50951 270.126232,374.83313 275.301583,379.800054 C280.476934,384.766977 287.31187,384.786192 291.227613,384.786192 Z" id="Oval-3-Copy-7" stroke="#7E6785" fill="#7E6785" transform="translate(287.143142, 371.352912) rotate(-26.000000) translate(-287.143142, -371.352912) "></path>
            <path d="M289.359725,378.45065 C291.274763,378.45065 294.574281,374.579008 294.574281,371.28165 C294.574281,367.984293 291.789076,365.311257 288.353351,365.311257 C284.917627,365.311257 283.955555,366.102551 282.132422,368.296453 C280.309289,370.490355 279.039858,373.582993 281.570921,376.012122 C284.101985,378.441252 287.444687,378.45065 289.359725,378.45065 Z" id="Oval-3-Copy-8" stroke="#F6F6F1" fill="#7E6785" transform="translate(287.362169, 371.880953) rotate(-26.000000) translate(-287.362169, -371.880953) "></path>
            <path d="M334.509981,164.098635 L479.841164,323.875901 L473.657221,221.003828 L570.504321,327.527371 L568.488666,257.705143 L759.044022,478.61228 C760.126616,479.86731 760.194511,479.809108 759.204534,478.494054 L543.397104,191.822678 L537.495663,240.857128 L443.711222,142.375154 L441.956257,224.402178 L376.372821,120.685433 L334.509981,164.098635 Z" id="Path-13-Copy" stroke="#B8A2BE" stroke-width="7" fill="#B8A2BE" transform="translate(547.206916, 300.101758) rotate(39.000000) translate(-547.206916, -300.101758) "></path>
            <path d="M312.033045,249.814567 L312.033045,438.084349 C312.033045,438.084349 311.603633,445.114439 313.840713,451.37703" id="Path-3-Copy" stroke="#7E6785" stroke-width="7" stroke-linecap="round"></path>
            <path d="M154.007878,144.814567 C152.898958,144.814567 152.204896,145.690125 152.47325,146.750057 C152.47325,146.750057 177.079696,261.956974 310.28075,261.956974 C443.481804,261.956974 469.187747,146.738 469.187747,146.738 C469.457487,145.675717 468.778886,144.814567 467.668275,144.814567 L154.007878,144.814567 Z" id="Line-Copy-2" stroke="#7E6785" stroke-width="7" stroke-linecap="square" fill="#EADA91" transform="translate(310.838077, 203.385771) scale(1, -1) translate(-310.838077, -203.385771) "></path>
            <path d="M318.109092,160.819315 C319.389183,157.16637 323.351661,155.327783 326.953471,156.710389 L327.852156,157.055362 C331.456681,158.439009 333.252474,162.494662 331.868159,166.100926 L302.746971,241.964213 C301.360424,245.576293 297.318535,247.384396 293.694668,245.993324 L295.447701,246.66625 C291.834799,245.279387 289.941268,241.200707 291.223773,237.540872 L318.109092,160.819315 Z" id="Rectangle-Copy" fill="#FFFCFC" transform="translate(311.578900, 201.458285) rotate(-21.000000) translate(-311.578900, -201.458285) "></path>
            <path d="M388.837767,150.358898 C390.201613,146.739865 392.821909,146.538613 394.700467,149.927621 L394.237675,149.092722 C396.111708,152.473568 396.540473,158.159242 395.201789,161.774638 L362.262661,250.733599 C360.921093,254.356782 358.316255,254.556703 356.44221,251.175835 L356.501303,251.282442 C354.628324,247.903499 354.21195,242.240178 355.579438,238.611484 L388.837767,150.358898 Z" id="Rectangle-Copy-2" fill="#FFFCFC" transform="translate(375.377225, 200.548324) rotate(-61.000000) translate(-375.377225, -200.548324) "></path>
            <path d="M256.837767,150.358898 C258.201613,146.739865 260.821909,146.538613 262.700467,149.927621 L262.237675,149.092722 C264.111708,152.473568 264.540473,158.159242 263.201789,161.774638 L230.262661,250.733599 C228.921093,254.356782 226.316255,254.556703 224.44221,251.175835 L224.501303,251.282442 C222.628324,247.903499 222.21195,242.240178 223.579438,238.611484 L256.837767,150.358898 Z" id="Rectangle-Copy-3" fill="#FFFCFC" transform="translate(243.377225, 200.548324) scale(-1, 1) rotate(-61.000000) translate(-243.377225, -200.548324) "></path>
            <path d="M359.351316,433.624333 C359.351316,429.206055 362.902393,425.166386 367.285757,424.619811 C367.285757,424.619811 398.439274,420.438345 414.635204,420.438345 C430.831133,420.438345 471.40411,424.802597 471.40411,424.802597 C475.79323,425.256429 479.351316,429.215045 479.351316,433.624333 L479.351316,433.624333 C479.351316,438.042611 475.805782,441.159045 471.41508,440.600518 C471.41508,440.600518 436.722712,435.879134 419.280849,435.879134 C401.838987,435.879134 367.288783,440.597206 367.288783,440.597206 C362.905041,441.164472 359.351316,438.03362 359.351316,433.624333 L359.351316,433.624333 Z" id="Rectangle-3-Copy-2" fill="#909EA1" transform="translate(419.351316, 430.551804) rotate(77.000000) translate(-419.351316, -430.551804) "></path>
            <path d="M304.618273,568.314567 C304.618273,558.631046 298.771192,547.814567 293.103438,547.814567 C261.4903,547.814567 228.605588,563.271267 242.118273,568.314567 L304.618273,568.314567 Z" id="Oval-2-Copy-16" stroke="#7E6785" stroke-width="7" fill="#D08E49"></path>
            <rect id="Rectangle-3" fill="#909FA1" x="343" y="549.814567" width="120" height="16" rx="8"></rect>
            <path d="M254.279662,431.256375 C254.380273,430.716601 254.689952,430.662841 254.975029,431.142488 L336.5,568.309921 L271.5,568.309921 C271.5,568.309921 255.592161,540.754565 251.343642,504.279028 C247.095123,467.803491 254.279662,431.256375 254.279662,431.256375 Z" id="Path-8-Copy-7" stroke="#7E6785" stroke-width="7" fill="#98A4A6"></path>
            <path d="M312.403891,485.750516 C311.894293,482.765802 313.930567,480.173468 316.958057,479.959952 L315.811155,480.040838 C318.835949,479.827513 321.628167,482.090813 322.035413,485.103657 C322.035413,485.103657 324.383624,501.260437 324.383624,508.372945 C324.383624,515.485453 322.401236,523.765579 322.401236,523.765579 C321.786429,526.741841 318.838645,529.327322 315.811155,529.540838 L316.958057,529.459952 C313.933263,529.673278 312.014244,527.434456 312.636082,524.476561 C312.636082,524.476561 315.147138,513.878318 315.147138,507.39505 C315.147138,500.911782 312.403891,485.750516 312.403891,485.750516 Z" id="Rectangle-7-Copy-9" fill="#FFFFFF" transform="translate(318.354688, 504.750395) rotate(59.000000) translate(-318.354688, -504.750395) "></path>
            <path d="M300.403891,467.750516 C299.894293,464.765802 301.930567,462.173468 304.958057,461.959952 L303.811155,462.040838 C306.835949,461.827513 309.628167,464.090813 310.035413,467.103657 C310.035413,467.103657 312.383624,483.260437 312.383624,490.372945 C312.383624,497.485453 310.401236,505.765579 310.401236,505.765579 C309.786429,508.741841 306.838645,511.327322 303.811155,511.540838 L304.958057,511.459952 C301.933263,511.673278 300.014244,509.434456 300.636082,506.476561 C300.636082,506.476561 303.147138,495.878318 303.147138,489.39505 C303.147138,482.911782 300.403891,467.750516 300.403891,467.750516 Z" id="Rectangle-7-Copy-10" fill="#FFFFFF" transform="translate(306.354688, 486.750395) rotate(59.000000) translate(-306.354688, -486.750395) "></path>
            <path d="M290.561795,449.661889 C290.052197,446.677175 292.088471,444.084841 295.115961,443.871325 L293.969059,443.952211 C296.993853,443.738885 299.786071,446.002186 300.193317,449.01503 C300.193317,449.01503 302.541528,465.17181 302.541528,472.284318 C302.541528,479.396826 300.55914,487.676952 300.55914,487.676952 C299.944333,490.653214 296.996549,493.238695 293.969059,493.452211 L295.115961,493.371325 C292.091167,493.584651 290.172148,491.345829 290.793986,488.387934 C290.793986,488.387934 293.305042,477.78969 293.305042,471.306423 C293.305042,464.823155 290.561795,449.661889 290.561795,449.661889 Z" id="Rectangle-7-Copy-11" fill="#FFFFFF" transform="translate(296.512592, 468.661768) rotate(-284.000000) translate(-296.512592, -468.661768) "></path>
            <path d="M328.062203,417.126365 L328.062203,438.812687 C328.062203,447.097997 321.34419,453.814567 313.061048,453.814567 L300.559822,453.814567 C300.008852,453.814567 299.831685,454.168937 300.176823,454.611078 C300.176823,454.611078 328.062203,492.314567 358.562203,480.314567 C380.640591,471.627988 385.916368,421.00266 369.402672,398.814567" id="Path-9-Copy-7" stroke="#7E6785" stroke-width="7" stroke-linecap="round"></path>
            <rect id="Rectangle-7" fill="#FFFFFF" x="346" y="418.814567" width="11" height="33" rx="5.5"></rect>
            <rect id="Rectangle-7-Copy-4" fill="#FFFFFF" x="348" y="486.814567" width="8" height="23" rx="4"></rect>
            <rect id="Rectangle-7-Copy-5" fill="#FFFFFF" x="348" y="515.814567" width="8" height="23" rx="4"></rect>
            <rect id="Rectangle-7-Copy-6" fill="#FFFFFF" transform="translate(328.161041, 550.831278) rotate(68.000000) translate(-328.161041, -550.831278) " x="324.161041" y="539.331278" width="8" height="23" rx="4"></rect>
            <rect id="Rectangle-7-Copy-7" fill="#FFFFFF" transform="translate(296.500000, 557.814567) rotate(90.000000) translate(-296.500000, -557.814567) " x="292.5" y="546.314567" width="8" height="23" rx="4"></rect>
            <rect id="Rectangle-7-Copy-8" fill="#FFFFFF" transform="translate(263.500000, 558.814567) rotate(90.000000) translate(-263.500000, -558.814567) " x="259.5" y="547.314567" width="8" height="23" rx="4"></rect>
            <path d="M406.657247,534.835215 C406.657247,531.793676 409.125862,529.328022 412.157247,529.328022 L412.157247,529.328022 C415.194813,529.328022 417.657247,531.781425 417.657247,534.832901 L417.657247,556.823143 C417.657247,559.863403 415.188632,562.328022 412.157247,562.328022 L412.157247,562.328022 C409.119681,562.328022 406.657247,559.868904 406.657247,556.824779 L406.657247,545.662074 L406.657247,534.835215 Z" id="Rectangle-7-Copy" fill="#FFFFFF" transform="translate(412.157247, 545.828022) rotate(-81.000000) translate(-412.157247, -545.828022) "></path>
            <path d="M370.657247,527.835215 C370.657247,524.793676 373.125862,522.328022 376.157247,522.328022 L376.157247,522.328022 C379.194813,522.328022 381.657247,524.781425 381.657247,527.832901 L381.657247,549.823143 C381.657247,552.863403 379.188632,555.328022 376.157247,555.328022 L376.157247,555.328022 C373.119681,555.328022 370.657247,552.868904 370.657247,549.824779 L370.657247,538.662074 L370.657247,527.835215 Z" id="Rectangle-7-Copy-12" fill="#FFFFFF" transform="translate(376.157247, 538.828022) rotate(-81.000000) translate(-376.157247, -538.828022) "></path>
            <path d="M447.657247,541.835215 C447.657247,538.793676 450.125862,536.328022 453.157247,536.328022 L453.157247,536.328022 C456.194813,536.328022 458.657247,538.781425 458.657247,541.832901 L458.657247,563.823143 C458.657247,566.863403 456.188632,569.328022 453.157247,569.328022 L453.157247,569.328022 C450.119681,569.328022 447.657247,566.868904 447.657247,563.824779 L447.657247,552.662074 L447.657247,541.835215 Z" id="Rectangle-7-Copy-3" fill="#FFFFFF" transform="translate(453.157247, 552.828022) rotate(-81.000000) translate(-453.157247, -552.828022) "></path>
            <path d="M335.657247,452.835215 C335.657247,449.793676 338.125862,447.328022 341.157247,447.328022 L341.157247,447.328022 C344.194813,447.328022 346.657247,449.781425 346.657247,452.832901 L346.657247,474.823143 C346.657247,477.863403 344.188632,480.328022 341.157247,480.328022 L341.157247,480.328022 C338.119681,480.328022 335.657247,477.868904 335.657247,474.824779 L335.657247,463.662074 L335.657247,452.835215 Z" id="Rectangle-7-Copy-2" fill="#FFFFFF" transform="translate(341.157247, 463.828022) rotate(-81.000000) translate(-341.157247, -463.828022) "></path>
        </g>
    </g>
</svg>