<?xml version="1.0" encoding="UTF-8"?>
<svg width="768px" height="578px" viewBox="0 0 768 578" version="1.1" xmlns="http://www.w3.org/2000/svg" xmlns:xlink="http://www.w3.org/1999/xlink" style="background: #FFFFFF;">
    <!-- Generator: Sketch 42 (36781) - http://www.bohemiancoding.com/sketch -->
    <title>Artboard Copy 2</title>
    <desc>Created with Sketch.</desc>
    <defs>
        <path d="M385.107081,259.528546 C380.110065,251.580237 383.6645,245.136859 393.065909,245.136859 L407.726488,245.136859 C417.119044,245.136859 420.48967,251.454844 415.255252,259.24809 L404.057735,275.919473 C401.591351,279.591541 397.6861,279.536871 395.330345,275.789781 L385.107081,259.528546 Z" id="path-1"></path>
        <mask id="mask-2" maskContentUnits="userSpaceOnUse" maskUnits="objectBoundingBox" x="0" y="0" width="34.8770001" height="33.5003818" fill="white">
            <use xlink:href="#path-1"></use>
        </mask>
        <path d="M358.635633,265.936444 C378.785796,255.436444 402.390273,256.436444 422.540437,265.936444 C442.6906,275.436444 441.161385,299.365442 441.161385,299.365442 C441.370026,303.774202 437.96266,307.348208 433.545939,307.348208 L348.205849,307.348208 C343.791314,307.348208 340.201773,303.766488 340.472429,299.349244 C340.472429,299.349244 338.485469,276.436444 358.635633,265.936444 Z" id="path-3"></path>
        <mask id="mask-4" maskContentUnits="userSpaceOnUse" maskUnits="objectBoundingBox" x="0" y="0" width="100.769429" height="48.9164464" fill="white">
            <use xlink:href="#path-3"></use>
        </mask>
        <path d="M367.153727,303.415736 C362.810852,302.595635 362.796179,301.178815 367.100056,300.230318 C367.100056,300.230318 382.482062,297.069943 396.016076,292.963792 C409.550091,288.857641 415.267886,283.606653 420.072323,285.871754 C430.887673,290.970761 429.917456,298.011679 429.917456,298.011679 C430.779552,302.323626 427.897161,305.782172 423.483318,305.736599 L384.891833,305.338139 C380.476261,305.292548 373.376115,304.590762 369.033261,303.770664 L367.153727,303.415736 Z" id="path-5"></path>
        <mask id="mask-6" maskContentUnits="userSpaceOnUse" maskUnits="objectBoundingBox" x="0" y="0" width="66.1855687" height="20.4115968" fill="white">
            <use xlink:href="#path-5"></use>
        </mask>
        <rect id="path-7" x="318.696318" y="294.994445" width="118.44367" height="37" rx="8"></rect>
        <mask id="mask-8" maskContentUnits="userSpaceOnUse" maskUnits="objectBoundingBox" x="0" y="0" width="118.44367" height="37" fill="white">
            <use xlink:href="#path-7"></use>
        </mask>
    </defs>
    <g id="Page-1" stroke="none" stroke-width="1" fill="none" fill-rule="evenodd">
        <g id="Artboard-Copy-2">
            <circle id="Oval-5" fill="#B8A2BE" cx="122" cy="72" r="6"></circle>
            <circle id="Oval-5-Copy-40" fill="#B8A2BE" cx="124" cy="73" r="6"></circle>
            <circle id="Oval-5-Copy-10" fill="#B8A2BE" cx="122" cy="173" r="6"></circle>
            <circle id="Oval-5-Copy-41" fill="#B8A2BE" cx="124" cy="174" r="6"></circle>
            <circle id="Oval-5-Copy-20" fill="#B8A2BE" cx="122" cy="283" r="6"></circle>
            <circle id="Oval-5-Copy-42" fill="#B8A2BE" cx="124" cy="284" r="6"></circle>
            <circle id="Oval-5-Copy" fill="#B8A2BE" cx="186" cy="128" r="6"></circle>
            <circle id="Oval-5-Copy-44" fill="#B8A2BE" cx="188" cy="129" r="6"></circle>
            <circle id="Oval-5-Copy-11" fill="#B8A2BE" cx="186" cy="229" r="6"></circle>
            <circle id="Oval-5-Copy-45" fill="#B8A2BE" cx="188" cy="230" r="6"></circle>
            <circle id="Oval-5-Copy-21" fill="#B8A2BE" cx="186" cy="339" r="6"></circle>
            <circle id="Oval-5-Copy-46" fill="#B8A2BE" cx="188" cy="340" r="6"></circle>
            <circle id="Oval-5-Copy-2" fill="#B8A2BE" cx="250" cy="72" r="6"></circle>
            <circle id="Oval-5-Copy-48" fill="#B8A2BE" cx="252" cy="73" r="6"></circle>
            <circle id="Oval-5-Copy-12" fill="#B8A2BE" cx="250" cy="173" r="6"></circle>
            <circle id="Oval-5-Copy-49" fill="#B8A2BE" cx="252" cy="174" r="6"></circle>
            <circle id="Oval-5-Copy-22" fill="#B8A2BE" cx="250" cy="283" r="6"></circle>
            <circle id="Oval-5-Copy-50" fill="#B8A2BE" cx="252" cy="284" r="6"></circle>
            <circle id="Oval-5-Copy-3" fill="#B8A2BE" cx="306" cy="128" r="6"></circle>
            <circle id="Oval-5-Copy-52" fill="#B8A2BE" cx="308" cy="129" r="6"></circle>
            <circle id="Oval-5-Copy-13" fill="#B8A2BE" cx="306" cy="229" r="6"></circle>
            <circle id="Oval-5-Copy-53" fill="#B8A2BE" cx="308" cy="230" r="6"></circle>
            <circle id="Oval-5-Copy-23" fill="#B8A2BE" cx="306" cy="339" r="6"></circle>
            <circle id="Oval-5-Copy-54" fill="#B8A2BE" cx="308" cy="340" r="6"></circle>
            <circle id="Oval-5-Copy-4" fill="#B8A2BE" cx="369" cy="72" r="6"></circle>
            <circle id="Oval-5-Copy-56" fill="#B8A2BE" cx="371" cy="73" r="6"></circle>
            <circle id="Oval-5-Copy-14" fill="#B8A2BE" cx="369" cy="173" r="6"></circle>
            <circle id="Oval-5-Copy-57" fill="#B8A2BE" cx="371" cy="174" r="6"></circle>
            <circle id="Oval-5-Copy-24" fill="#B8A2BE" cx="369" cy="283" r="6"></circle>
            <circle id="Oval-5-Copy-58" fill="#B8A2BE" cx="371" cy="284" r="6"></circle>
            <circle id="Oval-5-Copy-5" fill="#B8A2BE" cx="434" cy="127" r="6"></circle>
            <circle id="Oval-5-Copy-60" fill="#B8A2BE" cx="436" cy="128" r="6"></circle>
            <circle id="Oval-5-Copy-15" fill="#B8A2BE" cx="434" cy="228" r="6"></circle>
            <circle id="Oval-5-Copy-61" fill="#B8A2BE" cx="436" cy="229" r="6"></circle>
            <circle id="Oval-5-Copy-25" fill="#B8A2BE" cx="434" cy="338" r="6"></circle>
            <circle id="Oval-5-Copy-62" fill="#B8A2BE" cx="436" cy="339" r="6"></circle>
            <circle id="Oval-5-Copy-6" fill="#B8A2BE" cx="489" cy="72" r="6"></circle>
            <circle id="Oval-5-Copy-64" fill="#B8A2BE" cx="491" cy="73" r="6"></circle>
            <circle id="Oval-5-Copy-16" fill="#B8A2BE" cx="489" cy="173" r="6"></circle>
            <circle id="Oval-5-Copy-65" fill="#B8A2BE" cx="491" cy="174" r="6"></circle>
            <circle id="Oval-5-Copy-26" fill="#B8A2BE" cx="489" cy="283" r="6"></circle>
            <circle id="Oval-5-Copy-66" fill="#B8A2BE" cx="491" cy="284" r="6"></circle>
            <circle id="Oval-5-Copy-7" fill="#B8A2BE" cx="554" cy="130" r="6"></circle>
            <circle id="Oval-5-Copy-68" fill="#B8A2BE" cx="556" cy="131" r="6"></circle>
            <circle id="Oval-5-Copy-17" fill="#B8A2BE" cx="554" cy="231" r="6"></circle>
            <circle id="Oval-5-Copy-69" fill="#B8A2BE" cx="556" cy="232" r="6"></circle>
            <circle id="Oval-5-Copy-27" fill="#B8A2BE" cx="554" cy="341" r="6"></circle>
            <circle id="Oval-5-Copy-70" fill="#B8A2BE" cx="556" cy="342" r="6"></circle>
            <circle id="Oval-5-Copy-8" fill="#B8A2BE" cx="617" cy="74" r="6"></circle>
            <circle id="Oval-5-Copy-72" fill="#B8A2BE" cx="619" cy="75" r="6"></circle>
            <circle id="Oval-5-Copy-18" fill="#B8A2BE" cx="617" cy="175" r="6"></circle>
            <circle id="Oval-5-Copy-73" fill="#B8A2BE" cx="619" cy="176" r="6"></circle>
            <circle id="Oval-5-Copy-28" fill="#B8A2BE" cx="617" cy="285" r="6"></circle>
            <circle id="Oval-5-Copy-74" fill="#B8A2BE" cx="619" cy="286" r="6"></circle>
            <circle id="Oval-5-Copy-9" fill="#B8A2BE" cx="674" cy="133" r="6"></circle>
            <circle id="Oval-5-Copy-76" fill="#B8A2BE" cx="676" cy="134" r="6"></circle>
            <circle id="Oval-5-Copy-19" fill="#B8A2BE" cx="674" cy="234" r="6"></circle>
            <circle id="Oval-5-Copy-77" fill="#B8A2BE" cx="676" cy="235" r="6"></circle>
            <path d="M300.93291,389.019165 C328.030658,404.64541 355.130724,409.114279 361.462602,399.000664 C367.794479,388.887049 350.960414,368.02077 323.862666,352.394525 C296.764917,336.76828 269.664851,332.299411 263.332974,342.413026 C257.001097,352.526641 273.835162,373.39292 300.93291,389.019165 Z" id="Oval-2-Copy-15" stroke="#7E6785" stroke-width="7" fill="#D08E49" transform="translate(312.397788, 370.706845) rotate(-40.000000) translate(-312.397788, -370.706845) "></path>
            <path d="M469.069655,514.093367 C469.24666,490.937194 467.503007,466.135388 464.319745,446.037061 C449.81741,354.472925 397.280509,286.704514 346.975292,294.672077 C296.670075,302.639641 267.646103,383.326026 282.148438,474.890161 C288.060418,512.216934 280.174408,538.100937 296,564 L464.319745,565 C464.324037,564.981592 464.328326,564.963174 464.332612,564.944748 L470.5,565 L527.00198,565 C527.553171,565 527.659709,564.706041 527.243271,564.346304 L469.069655,514.093367 Z" id="Combined-Shape-Copy-7" stroke="#7E6785" stroke-width="7" fill="#5BC2D1"></path>
            <path d="M386.351316,430.809765 C386.351316,426.391487 389.902393,422.351818 394.285757,421.805244 C394.285757,421.805244 425.439274,417.623778 441.635204,417.623778 C457.831133,417.623778 498.40411,421.98803 498.40411,421.98803 C502.79323,422.441862 506.351316,426.400478 506.351316,430.809765 L506.351316,430.809765 C506.351316,435.228043 502.805782,438.344478 498.41508,437.785951 C498.41508,437.785951 463.722712,433.064567 446.280849,433.064567 C428.838987,433.064567 394.288783,437.782639 394.288783,437.782639 C389.905041,438.349905 386.351316,435.219053 386.351316,430.809765 L386.351316,430.809765 Z" id="Rectangle-3-Copy" fill="#47B9C9" transform="translate(446.351316, 427.737237) rotate(77.000000) translate(-446.351316, -427.737237) "></path>
            <path d="M318.080217,377.431907 C325.105359,377.431907 324.440289,371.96626 324.440289,365.224042 C324.440289,358.481824 318.745286,353.016177 311.720145,353.016177 C304.695003,353.016177 299,352.377891 299,359.120109 C299,362.104283 313.047309,360.051302 314.900181,362.172075 C316.753052,364.292849 314.164474,377.431907 318.080217,377.431907 Z" id="Oval-3-Copy-7" stroke="#7E6785" fill="#7E6785" transform="translate(311.728572, 365.215953) scale(-1, -1) rotate(-26.000000) translate(-311.728572, -365.215953) "></path>
            <use id="Rectangle-4-Copy-3" stroke="#7E6785" mask="url(#mask-2)" stroke-width="14" fill="#BB85FB" transform="translate(400.282974, 261.887050) rotate(21.000000) translate(-400.282974, -261.887050) " xlink:href="#path-1"></use>
            <use id="Rectangle-4-Copy-4" stroke="#7E6785" mask="url(#mask-4)" stroke-width="14" fill="#DEDEDE" transform="translate(390.803227, 282.889985) rotate(21.000000) translate(-390.803227, -282.889985) " xlink:href="#path-3"></use>
            <use id="Rectangle-4-Copy-6" stroke="#BCB6B6" mask="url(#mask-6)" stroke-width="14" fill="#BCB6B6" transform="translate(396.977093, 295.531246) rotate(21.000000) translate(-396.977093, -295.531246) " xlink:href="#path-5"></use>
            <use id="Rectangle-4-Copy-5" stroke="#7E6785" mask="url(#mask-8)" stroke-width="14" fill="#EADA91" transform="translate(377.918153, 313.494445) rotate(21.000000) translate(-377.918153, -313.494445) " xlink:href="#path-7"></use>
            <path d="M353.083679,295.835804 L347,309.671609" id="Line-Copy-3" stroke="#B8AD7A" stroke-width="6" stroke-linecap="round"></path>
            <path d="M355.083679,296.835804 L349,310.671609" id="Line-Copy-8" stroke="#B8AD7A" stroke-width="6" stroke-linecap="round"></path>
            <path d="M380.083679,306.835804 L374,320.671609" id="Line-Copy-4" stroke="#B8AD7A" stroke-width="6" stroke-linecap="round"></path>
            <path d="M382.083679,307.835804 L376,321.671609" id="Line-Copy-31" stroke="#B8AD7A" stroke-width="6" stroke-linecap="round"></path>
            <path d="M407.083679,316.835804 L401,330.671609" id="Line-Copy-5" stroke="#B8AD7A" stroke-width="6" stroke-linecap="round"></path>
            <path d="M409.083679,317.835804 L403,331.671609" id="Line-Copy-32" stroke="#B8AD7A" stroke-width="6" stroke-linecap="round"></path>
            <path d="M292.463116,397.145797 L292.463116,418.832119 C292.463116,427.117429 285.782585,434.48864 277.532329,435.297101 L270.511789,435.98506 C269.967473,436.038399 269.775061,436.461577 270.082275,436.915399 C270.082275,436.915399 292.463116,472.333999 322.963116,460.333999 C345.041504,451.64742 350.31728,401.022092 333.803585,378.833999" id="Path-9-Copy-9" stroke="#7E6785" stroke-width="7" stroke-linecap="round" fill="#5BC2D1" transform="translate(306.708380, 420.824806) rotate(68.000000) translate(-306.708380, -420.824806) "></path>
            <polyline id="Path-6-Copy-3" stroke="#B090AF" stroke-width="5" stroke-linecap="round" transform="translate(376.000000, 239.500000) scale(1, -1) rotate(-270.000000) translate(-376.000000, -239.500000) " points="366.74359 187 379.897436 190 379.897436 208 395 222 387.205128 242 391.102564 265.5 375.75641 275.5 372.102564 292 357 288"></polyline>
            <polyline id="Path-6-Copy-5" stroke="#B090AF" stroke-width="5" stroke-linecap="round" transform="translate(373.000000, 215.750000) scale(1, -1) rotate(-270.000000) translate(-373.000000, -215.750000) " points="369.25 164.75 369.25 182.75 384.75 196.75 376.75 216.75 380.75 240.25 365 250.25 361.25 266.75"></polyline>
            <polyline id="Path-6-Copy-6" stroke="#B090AF" stroke-width="5" stroke-linecap="round" transform="translate(243.657862, 324.422571) rotate(-142.000000) translate(-243.657862, -324.422571) " points="239.907862 273.422571 239.907862 291.422571 255.407862 305.422571 247.407862 325.422571 251.407862 348.922571 235.657862 358.922571 231.907862 375.422571"></polyline>
            <polyline id="Path-6-Copy-7" stroke="#B090AF" stroke-width="5" stroke-linecap="round" transform="translate(261.151275, 342.422571) rotate(-142.000000) translate(-261.151275, -342.422571) " points="257.401275 291.422571 257.401275 309.422571 272.901275 323.422571 264.901275 343.422571 268.901275 366.922571 253.151275 376.922571 249.401275 393.422571"></polyline>
            <polyline id="Path-6-Copy" stroke="#B090AF" stroke-width="5" stroke-linecap="round" points="444 352 458.375 363.535211 457.125 387.704225 471.5 399.788732 468.375 422.859155 477.75 440.711268 473.375 466.802817 484 484.929577 477.75 508"></polyline>
            <polyline id="Path-6-Copy-4" stroke="#B090AF" stroke-width="5" stroke-linecap="round" points="466 363 477.859375 372.464789 476.828125 392.295775 488.6875 402.211268 486.109375 421.140845 493.84375 435.788732 490.234375 457.197183 499 472.070423 493.84375 491"></polyline>
            <circle id="Oval-5-Copy-29" fill="#B8A2BE" cx="674" cy="344" r="6"></circle>
            <circle id="Oval-5-Copy-78" fill="#B8A2BE" cx="676" cy="345" r="6"></circle>
            <circle id="Oval-5-Copy-30" fill="#B8A2BE" cx="122" cy="393" r="6"></circle>
            <circle id="Oval-5-Copy-43" fill="#B8A2BE" cx="124" cy="394" r="6"></circle>
            <circle id="Oval-5-Copy-31" fill="#B8A2BE" cx="186" cy="449" r="6"></circle>
            <circle id="Oval-5-Copy-47" fill="#B8A2BE" cx="188" cy="450" r="6"></circle>
            <circle id="Oval-5-Copy-32" fill="#B8A2BE" cx="250" cy="393" r="6"></circle>
            <circle id="Oval-5-Copy-51" fill="#B8A2BE" cx="252" cy="394" r="6"></circle>
            <circle id="Oval-5-Copy-34" fill="#B8A2BE" cx="369" cy="393" r="6"></circle>
            <circle id="Oval-5-Copy-59" fill="#B8A2BE" cx="371" cy="394" r="6"></circle>
            <circle id="Oval-5-Copy-35" fill="#B8A2BE" cx="434" cy="448" r="6"></circle>
            <circle id="Oval-5-Copy-63" fill="#B8A2BE" cx="436" cy="449" r="6"></circle>
            <circle id="Oval-5-Copy-36" fill="#B8A2BE" cx="489" cy="393" r="6"></circle>
            <circle id="Oval-5-Copy-67" fill="#B8A2BE" cx="491" cy="394" r="6"></circle>
            <circle id="Oval-5-Copy-37" fill="#B8A2BE" cx="554" cy="451" r="6"></circle>
            <circle id="Oval-5-Copy-71" fill="#B8A2BE" cx="556" cy="452" r="6"></circle>
            <circle id="Oval-5-Copy-38" fill="#B8A2BE" cx="617" cy="395" r="6"></circle>
            <circle id="Oval-5-Copy-75" fill="#B8A2BE" cx="619" cy="396" r="6"></circle>
            <path d="M327.618273,564.5 C327.618273,554.816479 321.771192,544 316.103438,544 C284.4903,544 251.605588,559.456699 265.118273,564.5 L327.618273,564.5 Z" id="Oval-2-Copy-16" stroke="#7E6785" stroke-width="7" fill="#D08E49"></path>
            <rect id="Rectangle-3" fill="#47B9C9" x="366" y="545" width="120" height="16" rx="8"></rect>
            <path d="M277.279662,426.447434 C277.380273,425.90766 277.688562,425.85668 277.971901,426.339803 L359,564.50098 L294.5,564.50098 C294.5,564.50098 278.592161,535.945624 274.343642,499.470087 C270.095123,462.99455 277.279662,426.447434 277.279662,426.447434 Z" id="Path-8-Copy-7" stroke="#7E6785" stroke-width="7" fill="#D9EFF2"></path>
            <path d="M305.007479,425.880751 L305.007479,437.842904 C305.007479,446.125658 298.321886,453.495294 290.086313,454.302317 L289.156732,454.393409 C288.602317,454.447737 288.069617,454.928543 287.982259,455.478849 C287.982259,455.478849 283.485615,475.671124 305.897776,466.853225 C322.121526,460.47011 328.436568,429.860369 322.770155,403.843226 L305.007479,425.880751 Z" id="Path-9-Copy-10" fill="#47B8C9" transform="translate(306.210916, 436.462657) rotate(68.000000) translate(-306.210916, -436.462657) "></path>
            <path d="M273.494716,422.432839 L273.494716,422.432839 C274.736053,427.645731 269.047264,432.397097 260.798314,433.044537 L252.873302,433.666551 C252.323764,433.709683 252.128686,434.116552 252.443666,434.569769 C252.443666,434.569769 275.742355,470.371616 306.242355,458.371616 C328.320743,449.685037 273.494716,422.432839 273.494716,422.432839 Z" id="Path-9-Copy-8" stroke="#7E6785" stroke-width="7" stroke-linecap="round" fill="#5BC1D0" transform="translate(281.887850, 441.632230) scale(-1, 1) rotate(68.000000) translate(-281.887850, -441.632230) "></path>
            <polyline id="Path-6" stroke="#B090AF" stroke-width="5" stroke-linecap="round" transform="translate(302.500000, 471.500000) rotate(-270.000000) translate(-302.500000, -471.500000) " points="293 419 306.5 422 306.5 440 322 454 314 474 318 497.5 302.25 507.5 298.5 524 283 520"></polyline>
            <polyline id="Path-6-Copy-2" stroke="#B090AF" stroke-width="5" stroke-linecap="round" transform="translate(300.000000, 498.750000) rotate(-270.000000) translate(-300.000000, -498.750000) " points="296.25 447.75 296.25 465.75 311.75 479.75 303.75 499.75 307.75 523.25 292 533.25 288.25 549.75"></polyline>
            <circle id="Oval-5-Copy-39" fill="#B8A2BE" cx="674" cy="454" r="6"></circle>
            <circle id="Oval-5-Copy-79" fill="#B8A2BE" cx="676" cy="455" r="6"></circle>
            <path d="M282,521 C282,521 291,561 298,561 C305,561 334,560.5 334,560.5 C334,560.5 308,551.5 302.5,548 C297,544.5 282,521 282,521 Z" id="Path-13-Copy" fill="#C2E1E5"></path>
        </g>
    </g>
</svg>