<?xml version="1.0" encoding="UTF-8"?>
<svg width="768px" height="578px" viewBox="0 0 768 578" version="1.1" xmlns="http://www.w3.org/2000/svg" xmlns:xlink="http://www.w3.org/1999/xlink" style="background: #FFFFFF;">
    <!-- Generator: Sketch 42 (36781) - http://www.bohemiancoding.com/sketch -->
    <title>Artboard Copy 3</title>
    <desc>Created with Sketch.</desc>
    <defs>
        <path d="M329.066174,337.020492 C333.349301,332.884325 340.188598,333.018071 344.310654,337.286585 L351.823316,345.066174 C355.959483,349.349301 355.825737,356.188598 351.557223,360.310654 L343.777634,367.823316 C339.494507,371.959483 332.65521,371.825737 328.533153,367.557223 L321.020492,359.777634 C316.884325,355.494507 317.018071,348.65521 321.286585,344.533153 L329.066174,337.020492 Z" id="path-1"></path>
        <mask id="mask-2" maskContentUnits="userSpaceOnUse" maskUnits="objectBoundingBox" x="0" y="0" width="36.8438079" height="36.8438079" fill="white">
            <use xlink:href="#path-1"></use>
        </mask>
    </defs>
    <g id="Page-1" stroke="none" stroke-width="1" fill="none" fill-rule="evenodd">
        <g id="Artboard-Copy-3">
            <path d="M511.429861,181.504615 L438.636229,555.995385" id="Path-3-Copy-2" stroke="#7E6785" stroke-width="11" stroke-linecap="round"></path>
            <path d="M57,24.5 L419.978971,373.131095" id="Line-Copy-14" stroke="#B8A2BE" stroke-width="7" stroke-linecap="round"></path>
            <path d="M56.6666667,100.81879 L384.978971,429.131095" id="Line-Copy-15" stroke="#B8A2BE" stroke-width="7" stroke-linecap="round"></path>
            <path d="M56.6666667,216.81879 L384.978971,545.131095" id="Line-Copy-17" stroke="#B8A2BE" stroke-width="7" stroke-linecap="round"></path>
            <path d="M327.618273,568.5 C327.618273,558.816479 321.771192,548 316.103438,548 C284.4903,548 251.605588,563.456699 265.118273,568.5 L327.618273,568.5 Z" id="Oval-2-Copy-16" stroke="#7E6785" stroke-width="7" fill="#D08E49"></path>
            <path d="M56.6666667,134.81879 L384.978971,463.131095" id="Line-Copy-16" stroke="#B8A2BE" stroke-width="7" stroke-linecap="round"></path>
            <path d="M322.93291,390.019165 C350.030658,405.64541 377.130724,410.114279 383.462602,400.000664 C389.794479,389.887049 372.960414,369.02077 345.862666,353.394525 C318.764917,337.76828 291.664851,333.299411 285.332974,343.413026 C279.001097,353.526641 295.835162,374.39292 322.93291,390.019165 Z" id="Oval-2-Copy-7" stroke="#7E6785" stroke-width="7" fill="#D08E49" transform="translate(334.397788, 371.706845) rotate(8.000000) translate(-334.397788, -371.706845) "></path>
            <path d="M438.641734,568.5 L290.5,568.5 C282.426214,539.242098 278.176327,490.890724 282.78202,453.380364 C294.079978,361.365883 344.219791,291.805242 394.772428,298.012326 C445.325065,304.219409 477.147269,383.84372 465.849312,475.858201 C464.599112,486.040259 464.058391,495.633174 463.62834,504.73727 L536.747079,567.850112 C537.161421,568.207754 537.054759,568.500563 536.505527,568.501257 L438.641734,568.625 L438.641734,568.5 Z" id="Combined-Shape-Copy-3" stroke="#7E6785" stroke-width="7" fill="#EA9199"></path>
            <path d="M394.351316,434.185988 C394.351316,429.76771 397.902393,425.728041 402.285757,425.181467 C402.285757,425.181467 433.439274,421 449.635204,421 C465.831133,421 506.40411,425.364253 506.40411,425.364253 C510.79323,425.818084 514.351316,429.7767 514.351316,434.185988 L514.351316,434.185988 C514.351316,438.604266 510.805782,441.720701 506.41508,441.162173 C506.41508,441.162173 471.722712,436.440789 454.280849,436.440789 C436.838987,436.440789 402.288783,441.158861 402.288783,441.158861 C397.905041,441.726128 394.351316,438.595276 394.351316,434.185988 L394.351316,434.185988 Z" id="Rectangle-3-Copy" fill="#CD878E" transform="translate(454.351316, 431.113460) rotate(88.000000) translate(-454.351316, -431.113460) "></path>
            <path d="M343.080217,364.431907 C350.105359,364.431907 349.440289,358.96626 349.440289,352.224042 C349.440289,345.481824 343.745286,340.016177 336.720145,340.016177 C329.695003,340.016177 324,339.377891 324,346.120109 C324,349.104283 338.047309,347.051302 339.900181,349.172075 C341.753052,351.292849 339.164474,364.431907 343.080217,364.431907 Z" id="Oval-3-Copy-3" stroke="#7E6785" fill="#7A7A7A"></path>
            <path d="M345,343 C345,343 366.980735,365.940087 369.377136,371.075231 C370.470511,373.418177 369.442837,376.993136 367.233204,379.163092 C364.599882,381.749129 360.287871,382.339698 355.886663,376.47142" id="Path-11" stroke="#7E6785" stroke-width="6" stroke-linecap="round"></path>
            <use id="Rectangle" stroke="#7E6785" mask="url(#mask-2)" stroke-width="12" fill="#898484" xlink:href="#path-1"></use>
            <path d="M317.700925,114.557841 C316.599756,114.557841 315.90941,115.434245 316.172627,116.500672 C316.172627,116.500672 350.581569,277.449821 535.803846,277.449821 C721.026123,277.449821 756.974086,116.471998 756.974086,116.471998 C757.23725,115.414838 756.545445,114.557841 755.456744,114.557841 L317.700925,114.557841 Z" id="Line-Copy-3" stroke="#7E6785" stroke-width="7" stroke-linecap="square" fill="#EADA91" transform="translate(536.578835, 196.003831) scale(1, -1) rotate(-26.000000) translate(-536.578835, -196.003831) "></path>
            <path d="M288.026341,430.353296 C288.266857,429.865513 288.669921,429.870349 288.925049,430.361097 L361,569 L291,569 C291,569 281.5,567 281.5,503.5 C281.5,440 288.026341,430.353296 288.026341,430.353296 Z" id="Path-8-Copy-3" stroke="#7E6785" stroke-width="7" fill="#D9EFF2"></path>
            <path d="M345.876653,422.073259 L409.342592,522.912904 C409.637546,523.381549 409.925361,523.323267 409.982915,522.771939 C409.982915,522.771939 419.017484,446.488989 387.217123,403.761461" id="Path-9-Copy-3" stroke="#7E6785" stroke-width="7" stroke-linecap="round" transform="translate(378.522822, 463.495009) rotate(10.000000) translate(-378.522822, -463.495009) "></path>
        </g>
    </g>
</svg>